<?xml version="1.0" encoding="utf-8"?>
<!-- Generator: Adobe Illustrator 15.0.2, SVG Export Plug-In . SVG Version: 6.00 Build 0)  -->
<!DOCTYPE svg PUBLIC "-//W3C//DTD SVG 1.1//EN" "http://www.w3.org/Graphics/SVG/1.1/DTD/svg11.dtd">
<svg version="1.1" id="Layer_1" xmlns="http://www.w3.org/2000/svg" xmlns:xlink="http://www.w3.org/1999/xlink" x="0px" y="0px"
	 width="2304px" height="1296px" viewBox="0 0 2304 1296" enable-background="new 0 0 2304 1296" xml:space="preserve">
<g id="thick">
	<path fill="none" stroke="#FF0000" stroke-width="0.01" d="M1415.952,33.211v252.748H1668.7V33.211H1415.952z M1587.014,57.453
		v12.003h-21.967V57.453H1587.014z M1542.073,57.453v12.003h-21.966V57.453H1542.073z M1497.136,57.453v12.003h-21.966V57.453
		H1497.136z M1440.194,159.333v-21.967h12.002v21.967H1440.194z M1452.196,182.306v21.966h-12.002v-21.966H1452.196z
		 M1440.194,114.394V92.429h12.002v21.965H1440.194z M1440.194,261.717v-34.472h12.002v22.47h22.471v12.002H1440.194z
		 M1497.64,261.717v-12.002h21.965v12.002H1497.64z M1542.578,261.717v-12.002h21.965v12.002H1542.578z M1587.518,261.717v-12.002
		h21.965v12.002H1587.518z M1644.457,159.837v21.965h-12.002v-21.965H1644.457z M1632.455,136.864v-21.966h12.002v21.966H1632.455z
		 M1644.457,204.776v21.966h-12.002v-21.966H1644.457z M1644.457,91.925h-12.002V69.455h-22.47V57.453h34.472V91.925z"/>
	<g>
		<polygon id="side_28_" fill="none" stroke="#FF0000" stroke-width="1.000000e-04" points="1215.112,50.194 1215.112,32.072 
			1238.085,32.072 1238.085,40.192 1260.051,40.192 1260.051,32.072 1283.023,32.072 1283.023,40.192 1304.989,40.192 
			1304.989,32.072 1327.962,32.072 1327.962,40.192 1349.929,40.192 1349.929,32.072 1372.901,32.072 1372.901,40.192 
			1407.373,40.192 1407.373,73.184 1395.37,73.184 1395.37,95.165 1407.373,95.165 1407.373,118.152 1395.37,118.152 
			1395.37,140.133 1407.373,140.133 1407.373,163.121 1395.37,163.121 1395.37,185.102 1407.373,185.102 1407.373,208.092 
			1395.37,208.092 1395.37,230.072 1407.373,230.072 1407.373,253.06 1395.37,253.06 1395.37,275.042 1407.373,275.042 
			1407.373,298.029 1395.37,298.029 1395.37,320.009 1407.373,320.009 1407.373,342.999 1395.37,342.999 1395.37,364.98 
			1407.373,364.98 1407.373,387.968 1395.37,387.968 1395.37,428.576 1372.397,428.576 1372.397,410.453 1350.433,410.453 
			1350.433,428.576 1327.458,428.576 1327.458,410.453 1305.493,410.453 1305.493,428.576 1282.52,428.576 1282.52,410.453 
			1260.555,410.453 1260.555,428.576 1237.581,428.576 1237.581,410.453 1203.108,410.453 1203.108,387.464 1215.112,387.464 
			1215.112,365.484 1203.108,365.484 1203.108,342.494 1215.112,342.494 1215.112,320.513 1203.108,320.513 1203.108,297.525 
			1215.112,297.525 1215.112,275.545 1203.108,275.545 1203.108,252.557 1215.112,252.557 1215.112,230.576 1203.108,230.576 
			1203.108,207.586 1215.112,207.586 1215.112,185.605 1203.108,185.605 1203.108,162.617 1215.112,162.617 1215.112,140.637 
			1203.108,140.637 1203.108,117.648 1215.112,117.648 1215.112,95.668 1203.108,95.668 1203.108,72.679 1215.112,72.679 		"/>
		<g>
			<rect x="1321.509" y="185.102" fill="none" stroke="#0000FF" stroke-width="1.000000e-04" width="49.2" height="55.197"/>
			<rect x="1321.509" y="259.924" fill="none" stroke="#0000FF" stroke-width="1.000000e-04" width="49.2" height="55.194"/>
			<rect x="1321.509" y="334.896" fill="none" stroke="#0000FF" stroke-width="1.000000e-04" width="49.2" height="55.199"/>
			<rect x="1238.677" y="334.896" fill="none" stroke="#0000FF" stroke-width="1.000000e-04" width="49.199" height="55.199"/>
			<rect x="1238.677" y="259.769" fill="none" stroke="#0000FF" stroke-width="1.000000e-04" width="49.199" height="55.197"/>
			<rect x="1238.677" y="184.795" fill="none" stroke="#0000FF" stroke-width="1.000000e-04" width="49.199" height="55.194"/>
			<rect x="1318.776" y="182.035" fill="none" stroke="#0000FF" stroke-width="1.000000e-04" width="54.666" height="61.33"/>
			<rect x="1318.776" y="256.857" fill="none" stroke="#0000FF" stroke-width="1.000000e-04" width="54.666" height="61.33"/>
			<rect x="1318.776" y="332.292" fill="none" stroke="#0000FF" stroke-width="1.000000e-04" width="54.666" height="61.329"/>
			<rect x="1236.109" y="105.374" fill="none" stroke="#0000FF" stroke-width="1.000000e-04" width="54.667" height="61.329"/>
			<rect x="1236.109" y="182.035" fill="none" stroke="#0000FF" stroke-width="1.000000e-04" width="54.667" height="61.33"/>
			<rect x="1236.109" y="256.857" fill="none" stroke="#0000FF" stroke-width="1.000000e-04" width="54.667" height="61.33"/>
			<rect x="1236.109" y="332.292" fill="none" stroke="#0000FF" stroke-width="1.000000e-04" width="54.667" height="61.329"/>
			<rect x="1239.776" y="108.438" fill="none" stroke="#0000FF" stroke-width="1.000000e-04" width="13.166" height="25.759"/>
			<rect x="1256.61" y="108.438" fill="none" stroke="#0000FF" stroke-width="1.000000e-04" width="13.166" height="25.759"/>
			<rect x="1273.61" y="108.438" fill="none" stroke="#0000FF" stroke-width="1.000000e-04" width="13.166" height="25.759"/>
			<rect x="1239.776" y="137.57" fill="none" stroke="#0000FF" stroke-width="1.000000e-04" width="13.166" height="25.759"/>
			<rect x="1256.61" y="137.57" fill="none" stroke="#0000FF" stroke-width="1.000000e-04" width="13.166" height="25.759"/>
			<rect x="1273.61" y="137.57" fill="none" stroke="#0000FF" stroke-width="1.000000e-04" width="13.166" height="25.759"/>
			<rect x="1319.442" y="105.374" fill="none" stroke="#0000FF" stroke-width="1.000000e-04" width="54.667" height="61.329"/>
			<rect x="1323.11" y="108.438" fill="none" stroke="#0000FF" stroke-width="1.000000e-04" width="13.166" height="25.759"/>
			<rect x="1339.944" y="108.438" fill="none" stroke="#0000FF" stroke-width="1.000000e-04" width="13.166" height="25.759"/>
			<rect x="1356.944" y="108.438" fill="none" stroke="#0000FF" stroke-width="1.000000e-04" width="13.166" height="25.759"/>
			<rect x="1323.11" y="137.57" fill="none" stroke="#0000FF" stroke-width="1.000000e-04" width="13.166" height="25.759"/>
			<rect x="1339.944" y="137.57" fill="none" stroke="#0000FF" stroke-width="1.000000e-04" width="13.166" height="25.759"/>
			<rect x="1356.944" y="137.57" fill="none" stroke="#0000FF" stroke-width="1.000000e-04" width="13.166" height="25.759"/>
			<line fill="none" stroke="#0000FF" stroke-width="1.000000e-04" x1="1300.776" y1="92.04" x2="1300.776" y2="410.453"/>
			<line fill="none" stroke="#0000FF" stroke-width="1.000000e-04" x1="1308.776" y1="92.04" x2="1308.776" y2="410.453"/>
			<ellipse fill="none" stroke="#0000FF" stroke-width="1.000000e-04" cx="1314.109" cy="203.205" rx="2.167" ry="2.668"/>
			<ellipse fill="none" stroke="#0000FF" stroke-width="1.000000e-04" cx="1314.109" cy="225.249" rx="2.167" ry="2.666"/>
			<line fill="none" stroke="#0000FF" stroke-width="1.000000e-04" x1="1314.11" y1="205.874" x2="1314.11" y2="222.583"/>
			<ellipse fill="none" stroke="#0000FF" stroke-width="1.000000e-04" cx="1314.03" cy="194.129" rx="3.918" ry="4.084"/>
			<line fill="none" stroke="#0000FF" stroke-width="1.000000e-04" x1="1395.37" y1="92.04" x2="1215.112" y2="92.04"/>
			<line fill="none" stroke="#0000FF" stroke-width="1.000000e-04" x1="1395.37" y1="87.374" x2="1215.112" y2="87.374"/>
		</g>
	</g>
	<g>
		<polygon id="side_25_" fill="none" stroke="#FF0000" stroke-width="1.000000e-04" points="989.948,50.194 989.948,32.072 
			1012.922,32.072 1012.922,40.192 1034.887,40.192 1034.887,32.072 1057.86,32.072 1057.86,40.192 1079.826,40.192 
			1079.826,32.072 1102.8,32.072 1102.8,40.192 1124.765,40.192 1124.765,32.072 1147.739,32.072 1147.739,40.192 1182.21,40.192 
			1182.21,73.184 1170.208,73.184 1170.208,95.165 1182.21,95.165 1182.21,118.152 1170.208,118.152 1170.208,140.133 
			1182.21,140.133 1182.21,163.122 1170.208,163.122 1170.208,185.102 1182.21,185.102 1182.21,208.092 1170.208,208.092 
			1170.208,230.073 1182.21,230.073 1182.21,253.061 1170.208,253.061 1170.208,275.042 1182.21,275.042 1182.21,298.03 
			1170.208,298.03 1170.208,320.01 1182.21,320.01 1182.21,343 1170.208,343 1170.208,364.98 1182.21,364.98 1182.21,387.968 
			1170.208,387.968 1170.208,428.576 1147.235,428.576 1147.235,410.453 1125.269,410.453 1125.269,428.576 1102.296,428.576 
			1102.296,410.453 1080.33,410.453 1080.33,428.576 1057.356,428.576 1057.356,410.453 1035.391,410.453 1035.391,428.576 
			1012.418,428.576 1012.418,410.453 977.946,410.453 977.946,387.464 989.948,387.464 989.948,365.484 977.946,365.484 
			977.946,342.495 989.948,342.495 989.948,320.514 977.946,320.514 977.946,297.526 989.948,297.526 989.948,275.545 
			977.946,275.545 977.946,252.557 989.948,252.557 989.948,230.577 977.946,230.577 977.946,207.586 989.948,207.586 
			989.948,185.606 977.946,185.606 977.946,162.618 989.948,162.618 989.948,140.637 977.946,140.637 977.946,117.648 
			989.948,117.648 989.948,95.668 977.946,95.668 977.946,72.679 989.948,72.679 		"/>
		<g>
			<rect x="1096.346" y="185.102" fill="none" stroke="#0000FF" stroke-width="1.000000e-04" width="49.2" height="55.197"/>
			<rect x="1096.346" y="259.924" fill="none" stroke="#0000FF" stroke-width="1.000000e-04" width="49.2" height="55.194"/>
			<rect x="1096.346" y="334.897" fill="none" stroke="#0000FF" stroke-width="1.000000e-04" width="49.2" height="55.198"/>
			<rect x="1013.514" y="334.897" fill="none" stroke="#0000FF" stroke-width="1.000000e-04" width="49.199" height="55.198"/>
			<rect x="1013.514" y="259.77" fill="none" stroke="#0000FF" stroke-width="1.000000e-04" width="49.199" height="55.197"/>
			<rect x="1013.514" y="184.795" fill="none" stroke="#0000FF" stroke-width="1.000000e-04" width="49.199" height="55.194"/>
			<rect x="1093.612" y="182.036" fill="none" stroke="#0000FF" stroke-width="1.000000e-04" width="54.668" height="61.33"/>
			<rect x="1093.612" y="256.858" fill="none" stroke="#0000FF" stroke-width="1.000000e-04" width="54.668" height="61.33"/>
			<rect x="1093.612" y="332.293" fill="none" stroke="#0000FF" stroke-width="1.000000e-04" width="54.668" height="61.328"/>
			<rect x="1010.946" y="105.374" fill="none" stroke="#0000FF" stroke-width="1.000000e-04" width="54.668" height="61.33"/>
			<rect x="1010.946" y="182.036" fill="none" stroke="#0000FF" stroke-width="1.000000e-04" width="54.668" height="61.33"/>
			<rect x="1010.946" y="256.858" fill="none" stroke="#0000FF" stroke-width="1.000000e-04" width="54.668" height="61.33"/>
			<rect x="1010.946" y="332.293" fill="none" stroke="#0000FF" stroke-width="1.000000e-04" width="54.668" height="61.328"/>
			<rect x="1014.612" y="108.439" fill="none" stroke="#0000FF" stroke-width="1.000000e-04" width="13.166" height="25.759"/>
			<rect x="1031.446" y="108.439" fill="none" stroke="#0000FF" stroke-width="1.000000e-04" width="13.166" height="25.759"/>
			<rect x="1048.446" y="108.439" fill="none" stroke="#0000FF" stroke-width="1.000000e-04" width="13.166" height="25.759"/>
			<rect x="1014.612" y="137.571" fill="none" stroke="#0000FF" stroke-width="1.000000e-04" width="13.166" height="25.759"/>
			<rect x="1031.446" y="137.571" fill="none" stroke="#0000FF" stroke-width="1.000000e-04" width="13.166" height="25.759"/>
			<rect x="1048.446" y="137.571" fill="none" stroke="#0000FF" stroke-width="1.000000e-04" width="13.166" height="25.759"/>
			<rect x="1094.28" y="105.374" fill="none" stroke="#0000FF" stroke-width="1.000000e-04" width="54.666" height="61.33"/>
			<rect x="1097.946" y="108.439" fill="none" stroke="#0000FF" stroke-width="1.000000e-04" width="13.168" height="25.759"/>
			<rect x="1114.782" y="108.439" fill="none" stroke="#0000FF" stroke-width="1.000000e-04" width="13.166" height="25.759"/>
			<rect x="1131.782" y="108.439" fill="none" stroke="#0000FF" stroke-width="1.000000e-04" width="13.166" height="25.759"/>
			<rect x="1097.946" y="137.571" fill="none" stroke="#0000FF" stroke-width="1.000000e-04" width="13.168" height="25.759"/>
			<rect x="1114.782" y="137.571" fill="none" stroke="#0000FF" stroke-width="1.000000e-04" width="13.166" height="25.759"/>
			<rect x="1131.782" y="137.571" fill="none" stroke="#0000FF" stroke-width="1.000000e-04" width="13.166" height="25.759"/>
			<line fill="none" stroke="#0000FF" stroke-width="1.000000e-04" x1="1075.612" y1="92.04" x2="1075.612" y2="410.453"/>
			<line fill="none" stroke="#0000FF" stroke-width="1.000000e-04" x1="1083.612" y1="92.04" x2="1083.612" y2="410.453"/>
			<line fill="none" stroke="#0000FF" stroke-width="1.000000e-04" x1="1170.208" y1="92.04" x2="989.948" y2="92.04"/>
			<line fill="none" stroke="#0000FF" stroke-width="1.000000e-04" x1="1170.208" y1="87.374" x2="989.948" y2="87.374"/>
		</g>
	</g>
	<g>
		<polygon id="side_31_" fill="none" stroke="#FF0000" stroke-width="1.000000e-04" points="533.987,424.576 533.987,406.456 
			533.987,383.464 545.989,383.464 545.989,361.484 533.987,361.484 533.987,338.496 545.989,338.496 545.989,316.515 
			533.987,316.515 533.987,293.526 545.989,293.526 545.989,271.546 533.987,271.546 533.987,248.557 545.989,248.557 
			545.989,226.576 533.987,226.576 533.987,203.588 545.989,203.588 545.989,181.607 533.987,181.607 533.987,158.618 
			545.989,158.618 545.989,136.638 533.987,136.638 533.987,113.648 545.989,113.648 545.989,91.668 533.987,91.668 533.987,68.68 
			545.989,68.68 545.989,36.193 568.459,36.193 568.459,28.072 591.433,28.072 591.433,36.193 613.397,36.193 613.397,28.072 
			636.371,28.072 636.371,36.193 658.337,36.193 658.337,28.072 681.31,28.072 681.31,36.193 703.275,36.193 703.275,28.072 
			725.745,28.072 738.252,28.072 738.252,46.195 738.252,69.184 726.249,69.184 726.249,91.165 738.252,91.165 738.252,114.152 
			726.249,114.152 726.249,136.134 738.252,136.134 738.252,159.122 726.249,159.122 726.249,181.103 738.252,181.103 
			738.252,204.092 726.249,204.092 726.249,226.072 738.252,226.072 738.252,249.06 726.249,249.06 726.249,271.042 
			738.252,271.042 738.252,294.03 726.249,294.03 726.249,316.011 738.252,316.011 738.252,338.999 726.249,338.999 726.249,360.98 
			738.252,360.98 738.252,383.968 726.249,383.968 726.249,406.456 703.78,406.456 703.78,424.576 680.806,424.576 680.806,406.456 
			658.841,406.456 658.841,424.576 635.867,424.576 635.867,406.456 613.901,406.456 613.901,424.576 590.928,424.576 
			590.928,406.456 568.963,406.456 568.963,424.576 546.494,424.576 		"/>
		<g>
			<rect x="652.387" y="181.102" fill="none" stroke="#0000FF" stroke-width="1.000000e-04" width="49.2" height="55.197"/>
			<rect x="652.387" y="255.925" fill="none" stroke="#0000FF" stroke-width="1.000000e-04" width="49.2" height="55.194"/>
			<rect x="652.387" y="330.898" fill="none" stroke="#0000FF" stroke-width="1.000000e-04" width="49.2" height="55.199"/>
			<rect x="569.555" y="330.898" fill="none" stroke="#0000FF" stroke-width="1.000000e-04" width="49.199" height="55.199"/>
			<rect x="569.555" y="255.77" fill="none" stroke="#0000FF" stroke-width="1.000000e-04" width="49.199" height="55.197"/>
			<rect x="569.555" y="180.796" fill="none" stroke="#0000FF" stroke-width="1.000000e-04" width="49.199" height="55.194"/>
			<rect x="649.655" y="178.036" fill="none" stroke="#0000FF" stroke-width="1.000000e-04" width="54.666" height="61.33"/>
			<rect x="649.655" y="252.858" fill="none" stroke="#0000FF" stroke-width="1.000000e-04" width="54.666" height="61.33"/>
			<rect x="649.655" y="328.294" fill="none" stroke="#0000FF" stroke-width="1.000000e-04" width="54.666" height="61.33"/>
			<rect x="566.987" y="101.374" fill="none" stroke="#0000FF" stroke-width="1.000000e-04" width="54.668" height="61.33"/>
			<rect x="566.987" y="178.036" fill="none" stroke="#0000FF" stroke-width="1.000000e-04" width="54.668" height="61.33"/>
			<rect x="566.987" y="252.858" fill="none" stroke="#0000FF" stroke-width="1.000000e-04" width="54.668" height="61.33"/>
			<rect x="566.987" y="328.294" fill="none" stroke="#0000FF" stroke-width="1.000000e-04" width="54.668" height="61.33"/>
			<rect x="570.655" y="104.439" fill="none" stroke="#0000FF" stroke-width="1.000000e-04" width="13.166" height="25.759"/>
			<rect x="587.487" y="104.439" fill="none" stroke="#0000FF" stroke-width="1.000000e-04" width="13.166" height="25.759"/>
			<rect x="604.487" y="104.439" fill="none" stroke="#0000FF" stroke-width="1.000000e-04" width="13.166" height="25.759"/>
			<rect x="570.655" y="133.571" fill="none" stroke="#0000FF" stroke-width="1.000000e-04" width="13.166" height="25.759"/>
			<rect x="587.487" y="133.571" fill="none" stroke="#0000FF" stroke-width="1.000000e-04" width="13.166" height="25.759"/>
			<rect x="604.487" y="133.571" fill="none" stroke="#0000FF" stroke-width="1.000000e-04" width="13.166" height="25.759"/>
			<rect x="650.321" y="101.374" fill="none" stroke="#0000FF" stroke-width="1.000000e-04" width="54.666" height="61.33"/>
			<rect x="653.987" y="104.439" fill="none" stroke="#0000FF" stroke-width="1.000000e-04" width="13.166" height="25.759"/>
			<rect x="670.821" y="104.439" fill="none" stroke="#0000FF" stroke-width="1.000000e-04" width="13.166" height="25.759"/>
			<rect x="687.821" y="104.439" fill="none" stroke="#0000FF" stroke-width="1.000000e-04" width="13.166" height="25.759"/>
			<rect x="653.987" y="133.571" fill="none" stroke="#0000FF" stroke-width="1.000000e-04" width="13.166" height="25.759"/>
			<rect x="670.821" y="133.571" fill="none" stroke="#0000FF" stroke-width="1.000000e-04" width="13.166" height="25.759"/>
			<rect x="687.821" y="133.571" fill="none" stroke="#0000FF" stroke-width="1.000000e-04" width="13.166" height="25.759"/>
			<line fill="none" stroke="#0000FF" stroke-width="1.000000e-04" x1="631.655" y1="88.04" x2="631.655" y2="406.456"/>
			<line fill="none" stroke="#0000FF" stroke-width="1.000000e-04" x1="639.655" y1="88.04" x2="639.655" y2="406.456"/>
			<line fill="none" stroke="#0000FF" stroke-width="1.000000e-04" x1="726.248" y1="88.04" x2="545.989" y2="88.04"/>
			<line fill="none" stroke="#0000FF" stroke-width="1.000000e-04" x1="726.248" y1="83.375" x2="545.989" y2="83.375"/>
		</g>
	</g>
	<g>
		<polygon id="side" fill="none" stroke="#FF0000" stroke-width="1.000000e-04" points="766.877,428.576 766.877,410.456 
			766.877,387.466 778.879,387.466 778.879,365.484 766.877,365.484 766.877,342.496 778.879,342.496 778.879,320.515 
			766.877,320.515 766.877,297.527 778.879,297.527 778.879,275.546 766.877,275.546 766.877,252.558 778.878,252.558 
			778.879,230.576 766.877,230.576 766.877,207.587 778.879,207.587 778.879,185.607 766.877,185.606 766.877,162.619 
			778.879,162.618 778.879,140.638 766.877,140.638 766.877,117.649 778.879,117.648 778.879,95.668 766.877,95.668 766.877,72.68 
			778.879,72.68 778.879,40.193 801.348,40.193 801.348,32.072 824.321,32.073 824.321,40.193 846.287,40.193 846.287,32.072 
			869.26,32.072 869.26,40.193 891.226,40.193 891.226,32.073 914.198,32.072 914.198,40.193 936.164,40.193 936.164,32.072 
			958.634,32.072 971.141,32.072 971.141,50.195 971.141,73.184 959.139,73.184 959.139,95.165 971.141,95.165 971.141,118.152 
			959.139,118.153 959.139,140.134 971.141,140.134 971.141,163.122 959.139,163.122 959.139,185.102 971.141,185.103 
			971.141,208.091 959.139,208.091 959.139,230.072 971.141,230.073 971.141,253.062 959.139,253.061 959.139,275.042 
			971.141,275.042 971.141,298.031 959.139,298.031 959.139,320.011 971.141,320.011 971.141,343 959.139,343 959.139,364.98 
			971.141,364.982 971.141,387.97 959.139,387.97 959.139,410.456 936.668,410.456 936.668,428.576 913.696,428.576 
			913.696,410.456 891.73,410.456 891.73,428.576 868.756,428.576 868.756,410.456 846.791,410.456 846.791,428.576 
			823.817,428.576 823.817,410.456 801.852,410.456 801.852,428.576 779.383,428.576 		"/>
		<g>
			<rect x="885.275" y="185.103" fill="none" stroke="#0000FF" stroke-width="1.000000e-04" width="49.201" height="55.197"/>
			<rect x="885.275" y="259.925" fill="none" stroke="#0000FF" stroke-width="1.000000e-04" width="49.201" height="55.195"/>
			<rect x="885.275" y="334.898" fill="none" stroke="#0000FF" stroke-width="1.000000e-04" width="49.201" height="55.199"/>
			<rect x="802.444" y="334.898" fill="none" stroke="#0000FF" stroke-width="1.000000e-04" width="49.198" height="55.199"/>
			<rect x="802.444" y="259.77" fill="none" stroke="#0000FF" stroke-width="1.000000e-04" width="49.198" height="55.198"/>
			<rect x="802.444" y="184.796" fill="none" stroke="#0000FF" stroke-width="1.000000e-04" width="49.198" height="55.194"/>
			<rect x="882.543" y="182.036" fill="none" stroke="#0000FF" stroke-width="1.000000e-04" width="54.666" height="61.33"/>
			<rect x="882.543" y="256.859" fill="none" stroke="#0000FF" stroke-width="1.000000e-04" width="54.666" height="61.33"/>
			<rect x="882.543" y="332.294" fill="none" stroke="#0000FF" stroke-width="1.000000e-04" width="54.666" height="61.33"/>
			<rect x="799.877" y="105.374" fill="none" stroke="#0000FF" stroke-width="1.000000e-04" width="54.667" height="61.331"/>
			<rect x="799.876" y="182.036" fill="none" stroke="#0000FF" stroke-width="1.000000e-04" width="54.667" height="61.33"/>
			<rect x="799.877" y="256.858" fill="none" stroke="#0000FF" stroke-width="1.000000e-04" width="54.667" height="61.331"/>
			<rect x="799.876" y="332.294" fill="none" stroke="#0000FF" stroke-width="1.000000e-04" width="54.667" height="61.33"/>
			<rect x="803.544" y="108.439" fill="none" stroke="#0000FF" stroke-width="1.000000e-04" width="13.166" height="25.759"/>
			<rect x="820.378" y="108.439" fill="none" stroke="#0000FF" stroke-width="1.000000e-04" width="13.166" height="25.759"/>
			<rect x="837.377" y="108.44" fill="none" stroke="#0000FF" stroke-width="1.000000e-04" width="13.166" height="25.759"/>
			<rect x="803.543" y="137.571" fill="none" stroke="#0000FF" stroke-width="1.000000e-04" width="13.166" height="25.759"/>
			<rect x="820.377" y="137.571" fill="none" stroke="#0000FF" stroke-width="1.000000e-04" width="13.166" height="25.759"/>
			<rect x="837.377" y="137.571" fill="none" stroke="#0000FF" stroke-width="1.000000e-04" width="13.166" height="25.759"/>
			<rect x="883.209" y="105.374" fill="none" stroke="#0000FF" stroke-width="1.000000e-04" width="54.667" height="61.331"/>
			<rect x="886.877" y="108.439" fill="none" stroke="#0000FF" stroke-width="1.000000e-04" width="13.166" height="25.759"/>
			<rect x="903.711" y="108.44" fill="none" stroke="#0000FF" stroke-width="1.000000e-04" width="13.166" height="25.758"/>
			<rect x="920.711" y="108.439" fill="none" stroke="#0000FF" stroke-width="1.000000e-04" width="13.166" height="25.759"/>
			<rect x="886.877" y="137.571" fill="none" stroke="#0000FF" stroke-width="1.000000e-04" width="13.166" height="25.759"/>
			<rect x="903.711" y="137.571" fill="none" stroke="#0000FF" stroke-width="1.000000e-04" width="13.166" height="25.759"/>
			<rect x="920.711" y="137.571" fill="none" stroke="#0000FF" stroke-width="1.000000e-04" width="13.166" height="25.759"/>
			<line fill="none" stroke="#0000FF" stroke-width="1.000000e-04" x1="864.543" y1="92.04" x2="864.543" y2="410.456"/>
			<line fill="none" stroke="#0000FF" stroke-width="1.000000e-04" x1="872.543" y1="92.04" x2="872.543" y2="410.456"/>
			<line fill="none" stroke="#0000FF" stroke-width="1.000000e-04" x1="959.137" y1="92.04" x2="778.879" y2="92.04"/>
			<line fill="none" stroke="#0000FF" stroke-width="1.000000e-04" x1="959.137" y1="87.375" x2="778.879" y2="87.375"/>
		</g>
	</g>
	<g>
		<path d="M1243.305,185.403c13.334,0,26.668,0,40.003,0c0,17.757,0,35.518,0,53.274c-1.602,0.344-3.331,0.188-4.93,0.188
			c-11.225,0-23.524,0-35.073,0c-0.34-1.027-0.189-2.192-0.189-3.223c0-16.128,0-33.301,0-49.673
			C1243.099,185.703,1243.083,185.435,1243.305,185.403z M1243.494,186.352c0,17.379,0,34.758,0,52.136c11.362,0,23.467,0,34.505,0
			c1.599,0,3.327,0.155,4.929-0.188c0-17.505,0-35.011,0-52.517c-13.08,0-26.162,0-39.244,0
			C1243.463,185.814,1243.477,186.083,1243.494,186.352z"/>
		<path d="M1247.285,189.005c0,0.315,0,0.632,0,0.947c-0.316,0.253-0.636,0.503-1.327,0.381c-0.538-0.033,0.229,1.239-0.567,0.947
			c-0.375-0.512-0.113-1.656-0.188-2.465C1245.694,188.461,1247.011,188.549,1247.285,189.005z M1246.717,189.385
			c0.031-0.412-0.672-0.086-0.947-0.19C1245.338,189.946,1246.931,190.034,1246.717,189.385z"/>
		<path d="M1249.939,189.005c0.396,0.792,0.13,1.835-0.379,2.274c-0.975,0.154-1.489-0.152-1.896-0.568
			C1247.133,188.836,1248.836,188.102,1249.939,189.005z M1248.612,189.005c-0.543,0.357-0.615,1.996,0.38,1.896
			C1249.862,190.755,1249.758,188.77,1248.612,189.005z"/>
		<path d="M1250.509,188.626c0.927-0.106,0.453,1.189,0.567,1.896c-0.104,0.799,1.482-0.092,1.327,0.758c-0.632,0-1.264,0-1.896,0
			C1250.509,190.396,1250.509,189.511,1250.509,188.626z"/>
		<path d="M1252.783,188.626c0.221-0.031,0.338,0.042,0.38,0.188c0,0.821,0,1.644,0,2.465c-0.632,0.17-0.344-0.763-0.38-1.328
			c0.004,0.045-0.312-0.091-0.189-0.188C1252.809,189.592,1252.821,189.235,1252.783,188.626z"/>
		<path d="M1255.816,189.385c-0.604,0.163-0.586-0.298-0.946-0.379c-0.363,0.117-0.693,0.327-0.759,0.758
			c-0.079,0.522,0.23,0.882,0.568,1.137c0.734,0.166,0.31-0.828,1.137-0.567c0.111,0.932-0.623,1.02-1.516,0.947
			c-0.083-0.232-0.242-0.39-0.568-0.38c0-0.631,0-1.264,0-1.896c0.573-0.059,0.677-0.586,1.517-0.379
			C1255.326,188.991,1255.982,188.776,1255.816,189.385z"/>
		<path d="M1256.196,188.626c0.694,0,1.391,0,2.086,0c0.125,0.755-0.722,0.543-1.327,0.567c-0.296,0.993,1.27,0.121,1.139,0.948
			c-0.505,0.001-1.083-0.072-1.327,0.19c0.102,0.6,0.235,0.389,0.758,0.567c0.289,0.101,0.947-0.242,0.759,0.38
			c-0.697-0.062-1.679,0.162-2.085-0.189C1256.196,190.269,1256.196,189.448,1256.196,188.626z"/>
		<path d="M1261.696,188.626c0.057,0.499-0.265,0.622-0.761,0.567c0.031,0.221-0.041,0.337-0.188,0.38
			c0.17,0.556,0.17,0.582,0,1.138c0.473,0.076,0.012,0.734-0.379,0.568c0-0.568,0-1.138,0-1.706c0.081-0.523-0.707-0.178-0.76-0.568
			C1259.632,188.208,1261.062,188.817,1261.696,188.626z"/>
		<path d="M1261.884,188.626c0.696,0.062,1.679-0.162,2.085,0.188c-0.042,0.59-0.943,0.32-1.517,0.379
			c-0.124,0.756,0.722,0.543,1.326,0.569c-0.024,0.543-0.789,0.347-1.326,0.379c-0.445,1.33,1.537,0.232,1.517,1.138
			c-0.695,0-1.389,0-2.085,0C1261.884,190.396,1261.884,189.511,1261.884,188.626z"/>
		<path d="M1264.348,188.626c0.19,0,0.38,0,0.57,0c0,0.632,0,1.264,0,1.896c-0.115,0.746,1.312-0.048,1.137,0.758
			c-0.568,0-1.137,0-1.707,0C1264.348,190.396,1264.348,189.511,1264.348,188.626z"/>
		<path d="M1266.435,188.626c0.694,0,1.391,0,2.085,0c0.127,0.821-0.879,0.51-1.518,0.567c-0.301,1.061,1.442,0.074,1.328,0.948
			c-0.443,0-0.886,0-1.328,0c-0.445,1.33,1.537,0.231,1.518,1.138c-0.694,0-1.391,0-2.085,0
			C1266.435,190.396,1266.435,189.511,1266.435,188.626z"/>
		<path d="M1268.898,188.626c1.052-0.104,1.861,0.033,2.087,0.758c-0.127,0.631-0.488,1.03-1.327,0.948
			c-0.528-0.087,0.147,1.032-0.38,0.947c-0.799-0.022-0.188-1.455-0.38-2.086C1268.898,189.005,1268.898,188.816,1268.898,188.626z
			 M1270.226,189.385c-0.035-0.281-0.458-0.174-0.759-0.19C1269.062,189.892,1270.434,190.05,1270.226,189.385z"/>
		<path d="M1271.553,188.626c0.807-0.175,0.012,1.251,0.758,1.137c0.874,0.242,0.304-0.962,0.759-1.137
			c0.604-0.139,0.369,0.761,0.381,1.326c0.009,0.509,0.144,1.231-0.189,1.328c-0.686,0.181-0.266-0.747-0.38-1.138
			c-0.252,0-0.505,0-0.759,0c-0.536-0.031,0.158,1.169-0.379,1.138c-0.604,0.139-0.368-0.763-0.379-1.328
			C1271.354,189.446,1271.219,188.722,1271.553,188.626z"/>
		<path d="M1275.724,188.626c0.996,0.821,0.76,3.271-1.327,2.653C1273.414,190.472,1273.658,188.03,1275.724,188.626z
			 M1275.535,189.195c-0.287-0.078-0.349-0.27-0.569,0c-0.048,0.059-0.311-0.038-0.38,0c-0.476,0.261-0.262,1.866,0.567,1.706
			C1275.787,190.851,1275.905,189.663,1275.535,189.195z"/>
		<path d="M1276.672,188.626c0.983-0.101,0.954,0.814,1.327,1.326c0.543-0.024-0.165-1.301,0.379-1.326
			c0.638-0.102,0.353,0.691,0.379,1.137c0.031,0.517-0.024,1.165,0,1.517c-1.006,0.121-0.809-0.96-1.327-1.328
			c-0.543,0.026,0.164,1.303-0.379,1.328c-0.637,0.102-0.354-0.692-0.379-1.138C1276.641,189.626,1276.696,188.977,1276.672,188.626
			z"/>
		<path d="M1279.326,188.626c0.632,0,1.264,0,1.895,0c0.125,0.755-0.72,0.543-1.326,0.567c0.127,0.846,0.487,0.358,1.326,0.569
			c-0.024,0.543-0.789,0.347-1.326,0.379c-0.434,1.255,1.365,0.278,1.326,1.138c-0.631,0-1.263,0-1.895,0
			C1279.326,190.396,1279.326,189.511,1279.326,188.626z"/>
		<path d="M1260.367,193.177c-0.334,0.107-1.114-0.229-1.14,0.188c-0.179,0.687,0.748,0.266,1.14,0.379
			c0.194,0.639-0.591,0.297-0.948,0.381c-0.218,0.224-0.215,0.669-0.19,1.137c-1.034,0.023-0.387-1.635-0.567-2.464
			c0.27,0.017,0.537,0.031,0.567-0.189C1259.367,193.04,1260.541,192.433,1260.367,193.177z"/>
		<path d="M1260.936,192.797c0.697,0.062,1.679-0.162,2.086,0.189c-0.003,0.502,0.105,1.116-0.379,1.138
			c0.021,0.483,0.349,0.663,0.568,0.947c-0.231,0.574-0.724-0.134-0.947-0.188c-0.057-0.387-0.381-0.505-0.567-0.758
			c-0.457,0.176,0.112,1.378-0.761,1.137C1260.936,194.441,1260.936,193.619,1260.936,192.797z M1262.452,193.366
			c0.031-0.411-0.672-0.085-0.947-0.188C1261.073,193.927,1262.666,194.017,1262.452,193.366z"/>
		<path d="M1263.59,192.797c0.633,0,1.264,0,1.896,0c0.115,0.748-1.041,0.223-1.518,0.379c-0.301,1.06,1.443,0.074,1.328,0.948
			c-0.537,0.031-1.301-0.163-1.328,0.38c-0.084,0.842,1.646-0.129,1.518,0.757c-0.633,0-1.264,0-1.896,0
			C1263.59,194.441,1263.59,193.619,1263.59,192.797z"/>
		<path d="M1265.864,192.797c0.634,0,1.265,0,1.896,0c0.233,0.864-1.28-0.019-1.326,0.567c-0.244,0.939,1.57-0.181,1.326,0.759
			c-0.442,0-0.884,0-1.326,0c-0.446,1.33,1.536,0.232,1.518,1.138c-0.695,0-1.392,0-2.087,0
			C1265.864,194.441,1265.864,193.619,1265.864,192.797z"/>
		<path d="M1252.405,196.779c0.632,0,1.264,0,1.896,0c0.267,0.836-1.135,0.003-1.138,0.568c-0.292,0.798,0.98,0.03,0.947,0.569
			c0.191,0.57-0.423,0.336-0.759,0.379c-0.443,0.062-0.184,0.828-0.568,0.948C1251.975,199.253,1252.601,197.488,1252.405,196.779z"
			/>
		<path d="M1256.576,196.779c0.366,0.474,0.653,0.91,0.567,1.517c-0.156,1.087-1.533,1.494-2.465,0.568
			c0.115-0.453-0.238-1.375,0.189-1.517C1254.864,196.585,1255.859,196.821,1256.576,196.779z M1255.628,197.158
			c0.087,0.239-0.32,0.106-0.38,0.189c-0.295,0.417,0.143,1.375,0.188,1.517c0.656,0.151,0.801-0.21,1.14-0.379
			C1256.576,197.726,1256.476,197.068,1255.628,197.158z"/>
		<path d="M1257.523,196.779c0.697,0.062,1.679-0.162,2.085,0.189c0.124,0.691-0.128,1.01-0.38,1.327
			c0.164,0.153,0.114,0.52,0.38,0.568c0.117,0.169,0.229,0.339,0,0.38c-0.949,0.191-0.667-0.85-1.326-0.948
			c-0.527-0.085,0.148,1.033-0.38,0.948C1257.094,199.253,1257.719,197.488,1257.523,196.779z M1258.093,197.917
			c0.535,0.156,0.49-0.268,0.947-0.189c0.087-0.593-0.405-0.606-0.947-0.569C1258.093,197.411,1258.093,197.663,1258.093,197.917z"
			/>
		<path d="M1261.125,196.779c0.189,0,0.38,0,0.569,0c0,0.695,0,1.391,0,2.085c1.552,0.479,0.574-1.572,1.138-2.085
			c0.594-0.144,0.377,0.715,0.379,1.138c0.004,0.607-0.093,1.031-0.189,1.327c-0.905,0.085-0.801,0.085-1.706,0
			C1261.041,198.632,1261.136,197.653,1261.125,196.779z"/>
		<path d="M1265.487,197.537c-0.59,0.021-0.541-0.596-1.328-0.379c0.066,0.755,1.137,0.507,1.518,0.948
			c0.347,1.637-2.023,1.646-2.086,0.379c0.772-0.141,0.652,0.611,1.518,0.379c0.168-0.927-0.977-0.541-1.328-0.947
			c-0.133-0.583-0.133-0.364,0-0.948C1264.196,196.69,1265.811,196.482,1265.487,197.537z"/>
		<path d="M1266.055,196.779c0.695,0,1.392,0,2.086,0c0.127,0.886-1.602-0.084-1.518,0.758c0.082,0.425,0.935,0.077,1.328,0.19
			c0.123,0.755-0.722,0.542-1.328,0.568c-0.296,1.117,1.61,0.033,1.518,0.948c-0.694,0-1.391,0-2.086,0
			C1266.055,198.421,1266.055,197.6,1266.055,196.779z"/>
		<path d="M1271.932,197.347c0.159,0.917-0.176,1.341-0.379,1.896c-0.754,0.165-0.952,0.165-1.705,0
			c-0.258-0.323-0.684-1.451-0.189-1.896c-0.03-0.22,0.042-0.337,0.189-0.379C1270.51,196.49,1271.621,196.874,1271.932,197.347z
			 M1270.226,198.864c1.524,0.427,1.524-2.132,0-1.706C1270.081,197.605,1269.852,198.468,1270.226,198.864z"/>
		<path d="M1272.311,196.779c0.569,0,1.14,0,1.707,0c0.269,0.836-1.135,0.003-1.138,0.568c-0.175,0.743,1,0.138,1.138,0.569
			c-0.021,0.483-0.635,0.377-1.138,0.379c-0.104,0.275,0.222,0.979-0.189,0.948C1271.883,199.253,1272.508,197.488,1272.311,196.779
			z"/>
		<path d="M1252.783,203.036c0,0.632,0,1.264,0,1.896c-0.632,0.695-1.573,1.08-3.033,0.948c-0.558,0.266,0.178,1.819-0.379,2.085
			c-0.189,0-0.379,0-0.569,0c-0.643,0.074-0.359-0.752-0.379-1.138c-0.056-1.12,0.042-2.876,0-4.171c0-0.126,0-0.253,0-0.38
			C1249.891,201.793,1252.082,202.131,1252.783,203.036z M1249.561,204.742c0.922-0.025,2.13,0.233,2.086-0.759
			c-0.01-0.242-0.243-0.262-0.188-0.568c-0.359-0.338-1.252-0.139-1.896-0.189C1249.561,203.73,1249.561,204.235,1249.561,204.742z"
			/>
		<path d="M1254.869,202.087c0.602,1.229-0.324,3.989,0.567,4.929c0.443,0,0.885,0,1.328,0c0.631-0.403,0.301-1.541,0.379-2.654
			c0.06-0.854-0.374-2.241,0.568-2.274c1.014-0.301,0.695,1.038,0.758,1.896c0.062,0.805,0.146,2.137,0,2.655
			c-0.015,0.052-0.18,0.012-0.188,0.188c-0.019,0.351-0.598,0.804-0.759,1.138c-1.01,0.208-1.835,0.208-2.844,0
			c-1.213-0.872-0.938-3.234-0.947-5.309c-0.055-0.307,0.179-0.327,0.188-0.568C1254.237,202.087,1254.553,202.087,1254.869,202.087
			z"/>
		<path d="M1264.158,203.036c0.046,0.804-0.015,1.501-0.568,1.706c0.365,0.584,0.943,0.952,0.948,1.896
			c-0.352,0.408-0.583,0.934-0.948,1.326c-1.326,0-2.654,0-3.981,0c0-1.896,0-3.791,0-5.688
			C1261.123,201.807,1263.437,202.089,1264.158,203.036z M1260.746,204.362c0.678,0.338,2.491,0.407,2.274-0.758
			c-0.289-0.595-1.455-0.314-2.274-0.379C1260.746,203.603,1260.746,203.983,1260.746,204.362z M1260.746,207.016
			c1.062-0.075,2.649,0.375,2.465-0.948c-0.156-0.854-1.523-0.498-2.465-0.568C1260.746,206.005,1260.746,206.511,1260.746,207.016z
			"/>
		<path d="M1271.362,202.087c0.429,1.595,0.074,3.971,0.189,5.877c-0.441,0-0.885,0-1.327,0c0.116-1.906-0.237-4.282,0.189-5.877
			C1270.732,202.087,1271.047,202.087,1271.362,202.087z"/>
		<path d="M1277.239,203.983c-0.391-0.115-1.315,0.307-1.137-0.379c-0.336-0.17-0.554-0.458-0.949-0.568
			c-0.356,0.064-0.693,0.162-0.946,0.378c-0.825,0.707-0.674,2.447-0.189,3.413c0.445,0.061,0.711,0.3,1.327,0.189
			c0.596,0.027,0.651-0.486,0.759-0.948c0.396-0.413,0.54,0.094,1.138,0c0.285,0.479-0.152,1.102-0.568,1.518
			c-0.293,0.293-0.346,0.196-0.948,0.378c-0.275,0.084-1.233,0.318-1.896,0c-0.086-0.041-0.119-0.349-0.189-0.378
			c-0.243-0.11-0.529-0.078-0.759-0.38c-0.051-0.066,0.063-0.327,0-0.379c-0.022-0.019-0.179,0.023-0.188,0
			c-0.032-0.068,0.056-0.334,0-0.379c-0.02-0.015-0.184,0.019-0.189,0c-0.087-0.253-0.183-0.929-0.189-1.137
			c-0.017-0.421,0.147-0.474,0.189-0.759c0.035-0.234-0.071-0.533,0-0.758c0.02-0.062,0.179-0.007,0.189-0.19
			c0.011-0.215,0.406-0.896,0.759-1.137c0.067-0.047,0.328,0.062,0.379,0c0.018-0.022-0.023-0.18,0-0.19
			c0.067-0.032,0.334,0.055,0.379,0c0.013-0.015-0.016-0.186,0-0.188c0.361-0.088,1.232-0.122,1.707,0
			c0.045,0.012,0.017,0.181,0.188,0.188c0.5,0.026,0.984,0.628,1.138,1.327c0.011,0.05,0.229-0.003,0.188,0.19
			C1277.43,203.79,1277.127,203.843,1277.239,203.983z"/>
		<path d="M1265.487,202.276c0.379,0,0.758,0,1.137,0c0,1.581,0,3.16,0,4.74c0.422,0.03,1.135-0.038,1.707,0
			c0.444,0.03,1.238-0.26,1.137,0.379c0.254,1.012-1.11,0.406-1.706,0.568c-0.759,0-1.517,0-2.274,0
			C1265.487,206.068,1265.487,204.173,1265.487,202.276z"/>
		<path d="M1254.489,212.135c-0.358,0.479-0.664-0.175-1.138,0.189c-0.222,1.018,0.529,1.062,1.138,0.759
			c0.109,0.679-0.562,0.576-1.138,0.568c-0.421-0.523-0.36-0.963-0.188-1.707C1253.897,211.828,1253.944,211.79,1254.489,212.135z"
			/>
		<path d="M1266.055,212.325c-0.34,0.024-0.399-0.231-0.758-0.189c-0.041,0.608,0.676,0.461,0.947,0.759
			c0.023,0.339-0.232,0.399-0.189,0.758c-0.188,0-0.379,0-0.567,0c-0.598,0.217-0.462-0.297-0.76-0.379
			c0.176-0.517,0.594,0.264,1.139,0c-0.175-0.584-1.289-0.228-0.947-1.328C1265.383,211.793,1266.01,211.62,1266.055,212.325z"/>
		<path d="M1267.761,212.325c-0.396,0.08-0.501-0.13-0.759-0.189c-0.058,0.5,0.396,0.49,0.759,0.57c0,0.314,0,0.632,0,0.946
			c-0.605-0.025-1.45,0.188-1.326-0.568c0.456-0.078,0.411,0.346,0.948,0.189c-0.132-0.375-0.506-0.506-0.948-0.567
			C1266.217,211.751,1267.709,211.422,1267.761,212.325z"/>
		<path d="M1270.226,212.135c-0.16,0.557-0.609-0.113-0.947,0c-0.025,0.785,1.22,0.298,0.947,1.327
			c-0.419,0.396-1.263,0.148-1.517-0.189c0.174-0.517,0.593,0.264,1.139,0c-0.176-0.584-1.29-0.228-0.948-1.328
			C1269.481,211.676,1269.75,211.861,1270.226,212.135z"/>
		<path d="M1276.862,212.135c-0.029,0.473-0.642,0.056-0.759,0c-0.484,0.021-0.377,0.636-0.38,1.138
			c0.579,0.137,0.69-0.194,1.138-0.189c-0.225,1.236-2.092,0.375-1.517-0.948C1275.938,211.812,1276.346,211.724,1276.862,212.135z"
			/>
		<path d="M1247.665,211.945c0.188,0,0.379,0,0.567,0c-0.059,0.754,0.438,0.953,0.38,1.707c-0.421,0.104-0.271-0.362-0.568-0.379
			c-0.434-0.054-0.712,0.045-0.759,0.379C1246.807,213.222,1247.536,212.397,1247.665,211.945z M1247.665,212.894
			c0.126,0,0.253,0,0.379,0c0-0.127,0-0.253,0-0.38c-0.126,0-0.253,0-0.379,0C1247.665,212.641,1247.665,212.767,1247.665,212.894z"
			/>
		<path d="M1248.992,211.945c0.441,0,0.885,0,1.325,0c0.365,1.005,0.112,1.997-1.325,1.707
			C1248.992,213.083,1248.992,212.514,1248.992,211.945z M1249.371,213.273c0.596,0.216,0.461-0.298,0.758-0.379
			c-0.022-0.483-0.275-0.735-0.758-0.759C1249.371,212.514,1249.371,212.894,1249.371,213.273z"/>
		<path d="M1250.698,211.945c0.532-0.026,0.547,0.465,0.567,0.949c0.464-0.168,0.206-1.06,0.948-0.949
			c-0.103,0.658-0.508,1.011-0.568,1.707C1250.846,213.567,1250.854,212.675,1250.698,211.945z"/>
		<path d="M1252.405,211.945c0.77-0.073,0.209,1.183,0.379,1.707C1252.015,213.725,1252.573,212.471,1252.405,211.945z"/>
		<path d="M1254.869,211.945c0.441,0,0.885,0,1.327,0c-0.05,0.395-0.834,0.052-0.948,0.38c-0.062,0.502,1.062-0.178,0.758,0.569
			c-0.299,0.015-0.723-0.091-0.758,0.189c-0.033,0.54,1.239-0.229,0.948,0.568c-0.442,0-0.886,0-1.327,0
			C1254.869,213.083,1254.869,212.514,1254.869,211.945z"/>
		<path d="M1258.851,211.945c0.712-0.143,0.642,0.497,0.948,0.759c0.502,0.061-0.178-1.062,0.568-0.759c0,0.569,0,1.139,0,1.707
			c-0.7,0.068-0.793-0.472-0.948-0.947c-0.538-0.033,0.229,1.24-0.568,0.947C1258.851,213.083,1258.851,212.514,1258.851,211.945z"
			/>
		<path d="M1260.746,211.945c0.504,0.003,1.083-0.071,1.327,0.189c0.445,0.881-0.036,1.814-1.327,1.517
			C1260.746,213.083,1260.746,212.514,1260.746,211.945z M1261.505,213.273c0.405-0.176,0.259-1.379-0.38-1.138
			C1261.239,212.526,1260.819,213.452,1261.505,213.273z"/>
		<path d="M1263.4,211.945c0.189,0,0.38,0,0.568,0c0.152,0.608,0.562,0.957,0.569,1.707c-0.614,0.234-0.146-0.614-0.76-0.379
			c-0.612-0.235-0.145,0.613-0.758,0.379C1262.963,212.898,1263.459,212.7,1263.4,211.945z M1263.59,212.894
			c0.127,0,0.253,0,0.379,0c0-0.127,0-0.253,0-0.38c-0.126,0-0.252,0-0.379,0C1263.59,212.641,1263.59,212.767,1263.59,212.894z"/>
		<path d="M1268.141,211.945c0.769-0.073,0.209,1.183,0.379,1.707C1267.751,213.725,1268.311,212.471,1268.141,211.945z"/>
		<path d="M1270.415,212.135c0.081-0.423,0.935-0.076,1.327-0.189c-0.14,0.178-0.345,0.288-0.568,0.38c0,0.38,0,0.759,0,1.138
			C1270.694,213.99,1271.412,211.717,1270.415,212.135z"/>
		<path d="M1273.639,211.945c0.647-0.202,1.027,1.58,1.137,0.189c0.337-0.505,0.14,1.112,0.19,1.517
			c-0.595,0.089-0.534-0.477-0.759-0.758c-0.503-0.061,0.178,1.062-0.568,0.758C1273.639,213.083,1273.639,212.514,1273.639,211.945
			z"/>
		<path d="M1277.239,211.945c0.38,0,0.76,0,1.139,0c0.613,0.22-0.51,0.215-0.76,0.189c-0.168,0.612,0.619,0.267,0.76,0.569
			c0.136,0.516-0.895-0.136-0.76,0.379c0.05,0.394,0.834,0.052,0.949,0.379c-0.082,0.424-0.936,0.078-1.328,0.189
			C1277.239,213.083,1277.239,212.514,1277.239,211.945z"/>
		<path d="M1248.044,215.358c-0.018,0.805-0.448,1.195-1.327,1.137c-0.515-0.333-0.515-1.562,0-1.895
			C1247.542,214.47,1247.766,214.941,1248.044,215.358z M1246.717,216.117c1.217,0.339,1.217-1.477,0-1.138
			C1246.717,215.358,1246.717,215.738,1246.717,216.117z"/>
		<path d="M1248.233,214.6c0.381,0,0.76,0,1.139,0c0.217,0.61,0.446,1.32,0.188,1.895c-0.442,0-0.885,0-1.327,0
			C1248.233,215.864,1248.233,215.231,1248.233,214.6z M1248.612,215.358c0.188,0,0.38,0,0.568,0c0-0.126,0-0.252,0-0.379
			c-0.188,0-0.38,0-0.568,0C1248.612,215.106,1248.612,215.231,1248.612,215.358z M1249.182,216.117
			c0.01-0.325-0.146-0.485-0.38-0.568C1248.53,215.825,1248.523,216.282,1249.182,216.117z"/>
		<path d="M1249.939,214.6c0.443,0,0.886,0,1.327,0c0.216,0.381-0.339,0.28-0.38,0.379c-0.174,0.43,0.221,1.188-0.188,1.516
			c-0.531-0.327-0.18-0.495-0.189-1.137C1250.564,214.86,1249.773,215.209,1249.939,214.6z"/>
		<path d="M1253.163,214.6c0.617,0.064,0.435,1.556,0.188,1.895C1252.92,216.232,1253.28,215.176,1253.163,214.6z"/>
		<path d="M1253.921,214.6c0.325,0.244,0.745,0.392,0.759,0.948c0.395-0.05,0.052-0.833,0.379-0.948
			c0.435,0.263,0.07,1.319,0.189,1.895c-0.664,0.033-0.597-0.667-0.947-0.946c-0.412-0.031-0.086,0.673-0.188,0.946
			C1253.493,216.431,1253.676,214.94,1253.921,214.6z"/>
		<path d="M1257.523,214.6c0.691-0.123,1.011,0.127,1.327,0.379c-0.249,0.589,0.051,0.542,0,1.327
			c-0.245,0.262-0.822,0.188-1.327,0.188C1257.239,215.759,1257.364,214.986,1257.523,214.6z M1257.903,215.358
			c0.189,0,0.379,0,0.567,0c0-0.126,0-0.252,0-0.379c-0.188,0-0.378,0-0.567,0C1257.903,215.106,1257.903,215.231,1257.903,215.358z
			 M1257.903,216.117c0.189,0,0.379,0,0.567,0c0.035-0.414-0.154-0.604-0.567-0.568
			C1257.903,215.738,1257.903,215.927,1257.903,216.117z"/>
		<path d="M1259.229,214.6c0.543,0.026,0.349,0.791,0.38,1.327c-0.06,0.502,1.062-0.177,0.76,0.567c-0.379,0-0.76,0-1.14,0
			C1259.229,215.864,1259.229,215.231,1259.229,214.6z"/>
		<path d="M1260.746,214.6c0.441,0,0.885,0,1.327,0c0.193,0.636-0.59,0.294-0.948,0.379c-0.19,0.57,0.422,0.337,0.759,0.379
			c0.136,0.516-0.894-0.136-0.759,0.38c-0.29,0.858,1.238-0.101,0.948,0.757c-0.442,0-0.886,0-1.327,0
			C1260.746,215.864,1260.746,215.231,1260.746,214.6z"/>
		<path d="M1263.021,214.6c0.77-0.074,0.209,1.181,0.379,1.706C1262.632,216.38,1263.191,215.124,1263.021,214.6z"/>
		<path d="M1263.78,214.6c0.597-0.028,0.65,0.485,0.759,0.948c0.282-0.161,0.273-0.61,0.38-0.948
			c0.892-0.161,0.611,1.523,0.379,1.895c-0.412,0.033-0.086-0.671-0.189-0.946c-0.395,0.048-0.053,0.833-0.38,0.946
			c-0.335-0.164-0.587-0.634-0.759,0C1263.537,216.232,1263.898,215.176,1263.78,214.6z"/>
		<path d="M1265.864,214.6c0.701-0.133,0.474,0.665,0.759,0.948c0.42-0.149-0.036-1.175,0.76-0.948c0.288,0.345,0.288,1.55,0,1.895
			c-0.258-0.059-0.158-0.474-0.191-0.757c-0.253,0.125-0.352,0.405-0.379,0.757c-0.373-0.13-0.505-0.505-0.567-0.946
			c-0.331,0.016-0.06,0.53-0.189,0.758C1265.799,216.752,1265.859,215.331,1265.864,214.6z"/>
		<path d="M1269.088,214.6c0.19,0.57-0.422,0.335-0.758,0.379c-0.089,0.405,0.27,0.361,0.567,0.379
			c0.605,0.264-0.74,0.117-0.758,0.38c0.021,0.484,0.635,0.376,1.137,0.379c-0.015,0.577-1.238,0.444-1.517,0.189
			c0-0.505,0-1.011,0-1.516C1268.006,214.528,1268.584,214.602,1269.088,214.6z"/>
		<path d="M1269.467,214.6c0.725-0.092,1.211,0.053,1.518,0.379c0.148,1.097-0.184,1.712-1.327,1.516
			C1269.321,216.137,1269.52,215.244,1269.467,214.6z M1270.415,216.117c0.259-0.242,0.259-0.896,0-1.138c-0.189,0-0.379,0-0.567,0
			C1269.839,215.556,1269.737,216.227,1270.415,216.117z"/>
		<path d="M1271.362,214.6c0.434,0.263,0.07,1.319,0.189,1.895C1270.936,216.431,1271.118,214.94,1271.362,214.6z"/>
		<path d="M1272.501,214.6c0.51-0.141,0.454,0.523,0.567,0.758c0.157,0.319,0.564,0.612,0.38,1.137c-0.225-0.308-1.2-0.688-1.327,0
			C1271.573,215.935,1272.438,215.179,1272.501,214.6z M1272.501,215.738c0.127,0,0.252,0,0.379,0c0-0.126,0-0.253,0-0.38
			c-0.127,0-0.252,0-0.379,0C1272.501,215.484,1272.501,215.611,1272.501,215.738z"/>
		<path d="M1273.448,214.6c0.441,0,0.885,0,1.326,0c0.07,0.322-0.147,0.357-0.379,0.379c-0.022,0.546,0.104,1.242-0.188,1.516
			c-0.424-0.08-0.077-0.934-0.189-1.326C1274.093,214.714,1273.155,215.274,1273.448,214.6z"/>
		<path d="M1276.482,214.79c0.031,0.411-0.672,0.086-0.946,0.189c-0.09,0.405,0.27,0.361,0.567,0.379
			c0.723,0.328-0.739-0.014-0.567,0.38c-0.195,0.637,0.589,0.294,0.946,0.379c-0.025,0.542-0.791,0.348-1.327,0.378
			c-0.306-0.654,0.264-1.008-0.188-1.516C1274.98,214.402,1276.205,214.535,1276.482,214.79z"/>
		<path d="M1276.862,214.6c0.418,0.023,0.079,0.804,0.188,1.138c-0.111,0.681,1.133,0.004,0.948,0.757
			c-0.504-0.001-1.083,0.072-1.327-0.188C1276.711,215.713,1276.544,214.915,1276.862,214.6z"/>
		<path d="M1277.999,214.6c0.46,0.376,0.839,0.814,1.138,0c0.447,0.052-0.018,0.706-0.19,0.758c0.024,0.468,0.029,0.914-0.188,1.137
			c-0.257-0.017-0.114-0.36-0.188-0.567C1278.412,215.499,1277.939,215.203,1277.999,214.6z"/>
		<path d="M1251.457,220.477c-0.023,0.545,0.104,1.24-0.19,1.516c-0.314,0-0.632,0-0.947,0c-0.514-0.333-0.514-1.562,0-1.896
			C1250.915,220.007,1251.061,220.368,1251.457,220.477z M1250.319,221.614c0.439,0.062,0.729-0.029,0.947-0.188
			c0.051-0.618-0.225-0.913-0.758-0.948C1250.29,220.701,1250.294,221.147,1250.319,221.614z"/>
		<path d="M1252.025,220.097c0.733,0.127,0.676,0.001,1.139,0.189c0.03,0.412-0.673,0.087-0.948,0.19
			c-0.295,0.8,1.053-0.042,0.758,0.758c-1.07-0.438-0.422,0.841-1.137,0.758C1251.887,221.35,1251.689,220.456,1252.025,220.097z"/>
		<path d="M1254.68,220.287c0.031,0.412-0.672,0.087-0.947,0.19c-0.171,0.611,0.617,0.266,0.757,0.568
			c0.014,0.284-0.399,0.078-0.567,0.188c-0.376,0.25,0.084,0.85-0.568,0.758c0-0.567,0-1.137,0-1.707
			C1253.912,220.125,1254.12,220.125,1254.68,220.287z"/>
		<path d="M1256.954,220.667c-0.34,0.023-0.399-0.232-0.759-0.189c-0.419,0.023-0.079,0.804-0.189,1.137
			c0.434,0.054,0.713-0.045,0.76-0.379c0.622,0.453-0.262,0.989-0.949,0.758c-0.161-0.152-0.111-0.519-0.379-0.567
			c-0.137-0.581,0.327-0.559,0.19-1.139C1256.104,220.114,1256.928,219.924,1256.954,220.667z"/>
		<path d="M1258.66,220.287c-0.048,0.395-0.832,0.053-0.947,0.381c-0.062,0.502,1.062-0.178,0.758,0.567
			c-0.299,0.017-0.723-0.091-0.758,0.19c-0.033,0.539,1.24-0.229,0.947,0.567c-0.442,0-0.886,0-1.326,0c0-0.567,0-1.137,0-1.707
			C1257.885,220.025,1257.826,220.265,1258.66,220.287z"/>
		<path d="M1260.367,220.287c-0.05,0.871-0.202,0.917,0,1.707c-0.334-0.171-0.589-0.424-0.76-0.758
			c-0.503-0.061,0.18,1.062-0.567,0.758c0-0.567,0-1.137,0-1.707C1259.628,220.038,1259.582,220.339,1260.367,220.287z
			 M1259.419,220.857c0.188,0,0.38,0,0.568,0c0-0.127,0-0.253,0-0.379c-0.188,0-0.38,0-0.568,0
			C1259.419,220.603,1259.419,220.73,1259.419,220.857z"/>
		<path d="M1262.073,220.667c-0.536,0.155-0.491-0.269-0.948-0.189c0.132,0.374,0.506,0.505,0.948,0.568c0,0.253,0,0.505,0,0.758
			c-0.301,0.278-1.506,0.391-1.327-0.379c0.457-0.078,0.411,0.346,0.948,0.188c0.293-0.673-0.646-0.113-0.569-0.567
			c-0.333-0.045-0.433-0.326-0.379-0.76C1261.223,220.114,1262.047,219.924,1262.073,220.667z"/>
		<path d="M1264.918,220.097c0.43,0.139,0.565,0.571,0.758,0.949c0.503,0.06-0.178-1.062,0.568-0.76c0,0.57,0,1.139,0,1.707
			c-0.646,0.015-0.706-0.557-0.947-0.947c-0.412-0.032-0.086,0.672-0.188,0.947C1264.489,221.93,1264.672,220.438,1264.918,220.097z
			"/>
		<path d="M1267.951,220.287c0.493,0.97,0.062,2.057-1.328,1.707c0-0.567,0-1.137,0-1.707
			C1266.941,219.953,1267.259,220.456,1267.951,220.287z M1267.002,221.614c1.137,0.244,0.83-1.271,0-1.137
			C1267.002,220.857,1267.002,221.235,1267.002,221.614z"/>
		<path d="M1270.415,220.667c-0.577-0.238-0.737-0.146-1.139,0.189c-0.022,0.339,0.232,0.399,0.189,0.757
			c0.734,0.21,0.675-0.67,1.138-0.188c-0.144,0.487-0.604,0.658-1.327,0.567c-0.113-0.453-0.271-0.864-0.188-1.516
			C1269.43,220.238,1270.457,219.71,1270.415,220.667z"/>
		<path d="M1272.88,220.097c0.446-0.003,0.558,0.327,1.138,0.189c-0.049,0.871-0.201,0.917,0,1.707
			c-0.444-0.061-0.425-0.587-0.758-0.758c-0.504-0.061,0.177,1.062-0.569,0.758C1272.742,221.35,1272.543,220.456,1272.88,220.097z
			 M1273.069,220.857c0.19,0,0.381,0,0.569,0c0-0.127,0-0.253,0-0.379c-0.188,0-0.379,0-0.569,0
			C1273.069,220.603,1273.069,220.73,1273.069,220.857z"/>
		<path d="M1275.724,220.667c-0.396,0.079-0.502-0.131-0.758-0.189c-0.059,0.5,0.396,0.488,0.758,0.568c0,0.253,0,0.505,0,0.758
			c-0.301,0.278-1.505,0.391-1.327-0.379c0.456-0.078,0.412,0.346,0.948,0.188c0.069-0.575-0.617-0.394-0.948-0.567
			C1274.028,219.941,1275.711,219.803,1275.724,220.667z"/>
		<path d="M1254.869,220.287c0.769-0.072,0.209,1.183,0.379,1.707C1254.479,222.067,1255.039,220.812,1254.869,220.287z"/>
		<path d="M1254.869,222.942c0.441,0,0.885,0,1.327,0c0.023,0.467,0.027,0.913-0.19,1.137c0.107,0.388,0.571,0.372,0.19,0.759
			c-0.334-0.171-0.313-0.698-0.76-0.759c-0.453-0.074,0.105,0.864-0.567,0.569C1254.869,224.079,1254.869,223.511,1254.869,222.942z
			 M1255.248,223.7c0.188,0,0.38,0,0.567,0c0-0.126,0-0.253,0-0.379c-0.188,0-0.379,0-0.567,0
			C1255.248,223.447,1255.248,223.574,1255.248,223.7z"/>
		<path d="M1256.576,222.942c0.44,0,0.885,0,1.325,0c0.194,0.637-0.59,0.295-0.947,0.379c0.191,0.627,0.673,0.292,0.759,0.379
			c0.464,0.474-0.699-0.184-0.759,0.569c-0.031,0.411,0.673,0.086,0.947,0.189c-0.043,0.272-0.564,0.065-0.567,0.379
			c-0.387-0.33-0.371,0.141-0.758-0.189C1256.576,224.079,1256.576,223.511,1256.576,222.942z"/>
		<path d="M1259.608,223.511c-0.456,0.077-0.41-0.347-0.947-0.19c0.149,0.418,0.893,0.246,0.947,0.758
			c0.14,0.519-0.376,0.382-0.38,0.759c-0.481-0.022-0.975-0.036-0.946-0.568c0.457-0.078,0.411,0.346,0.946,0.189
			c0.027-0.784-1.219-0.298-0.946-1.327C1258.582,222.853,1259.787,222.74,1259.608,223.511z"/>
		<path d="M1259.987,222.942c0.505,0.001,1.082-0.072,1.327,0.189c0.079,0.647-0.058,1.08-0.759,0.947
			c-0.454-0.074,0.105,0.864-0.568,0.569C1259.987,224.079,1259.987,223.511,1259.987,222.942z M1260.367,223.7
			c0.325,0.011,0.485-0.146,0.567-0.379C1260.638,223.339,1260.28,223.296,1260.367,223.7z"/>
		<path d="M1263.211,223.321c0,0.379,0,0.758,0,1.139c-0.459,0.312-0.921,0.482-1.517,0.189c-0.259-0.562-0.274-1.374,0.188-1.707
			C1262.576,222.819,1262.894,223.069,1263.211,223.321z M1262.452,224.458c0.521-0.005,0.449-0.895,0.189-1.139
			c-0.189,0-0.379,0-0.568,0C1261.764,223.628,1261.844,224.512,1262.452,224.458z"/>
		<path d="M1263.59,222.942c0.609-0.04,0.461,0.676,0.758,0.948c0.54,0.033-0.229-1.24,0.57-0.948c0,0.569,0,1.137,0,1.707
			c-0.476,0.032-0.594-0.292-0.76-0.568c-0.273,0.043-0.065,0.565-0.38,0.568c-0.829,0.138,0.153-0.377-0.379-0.379
			c0-0.316,0-0.632,0-0.948C1263.585,223.316,1263.547,223.088,1263.59,222.942z"/>
		<path d="M1265.297,222.942c0.723-0.092,1.209,0.055,1.516,0.379c0.22,1.166-0.521,1.374-1.326,1.518
			C1265.149,224.479,1265.348,223.585,1265.297,222.942z M1265.676,224.458c0.85,0.258,0.921-0.765,0.568-1.139
			c-0.189,0-0.38,0-0.568,0C1265.676,223.7,1265.676,224.079,1265.676,224.458z"/>
		<path d="M1267.761,222.942c0.442,0,0.886,0,1.327,0c0.09,0.404-0.271,0.361-0.568,0.379c0,0.443,0,0.886,0,1.328
			c-0.754,0.085-0.22-0.902-0.379-1.328C1268.124,223.276,1267.549,223.261,1267.761,222.942z"/>
		<path d="M1270.604,222.942c0.196,0.547,0.376,0.482,0.38,0.948c0.005,0.552-0.823,1.142-1.137,0.759
			c-0.053-0.062-0.313,0.053-0.381,0c-0.165-0.135-0.379-0.763-0.379-0.759C1269.109,223.531,1269.143,222.837,1270.604,222.942z
			 M1269.657,224.458c0.806,0.174,0.81-0.454,0.758-1.139c-0.253,0-0.505,0-0.758,0
			C1269.444,223.918,1269.641,223.75,1269.657,224.458z"/>
		<path d="M1253.353,225.786c0.865-0.232-0.018,1.282,0.568,1.327c0.938,0.244-0.182-1.57,0.759-1.327
			c-0.039,0.594,0.127,1.393-0.189,1.707c-0.315,0-0.632,0-0.947,0C1253.225,227.178,1253.391,226.378,1253.353,225.786z"/>
		<path d="M1255.059,225.786c0.547,0.022,1.24-0.104,1.519,0.19c0.358,0.358-0.377,0.665-0.381,0.758
			c-0.011,0.311,0.441,0.209,0.381,0.759c-0.597,0.088-0.535-0.477-0.761-0.759c-0.598-0.093-0.068,0.941-0.758,0.759
			C1255.059,226.923,1255.059,226.354,1255.059,225.786z M1255.628,225.976C1254.941,226.871,1256.737,226.227,1255.628,225.976
			L1255.628,225.976z"/>
		<path d="M1258.471,225.976c-0.172,0.634-0.424,0.165-0.758,0c-0.273,0.104-0.463,0.295-0.568,0.568
			c-0.032,0.474,0.291,0.593,0.568,0.758c0.749-0.062-0.142-0.587,0.38-0.758c0.569-0.191,0.335,0.423,0.378,0.758
			c-0.244,0.261-0.823,0.188-1.326,0.189C1256.196,226.676,1257.283,225.139,1258.471,225.976z"/>
		<path d="M1258.851,225.786c0.378,0,0.758,0,1.139,0c0.858,0.322-0.689,0.059-0.761,0.19c-0.418,0.804,0.903-0.134,0.761,0.758
			c-0.302,0.017-0.725-0.091-0.761,0.19c-0.188,0.569,0.424,0.336,0.761,0.379c0.579,0.293-0.823,0.167-1.139,0.189
			C1258.851,226.923,1258.851,226.354,1258.851,225.786z"/>
		<path d="M1260.367,225.786c0.748-0.114,0.84,0.425,0.947,0.948c0.538,0.034-0.229-1.24,0.568-0.948c0,0.568,0,1.139,0,1.707
			c-0.647,0.08-0.569-0.567-0.948-0.759c-0.503-0.061,0.178,1.063-0.567,0.759C1260.367,226.923,1260.367,226.354,1260.367,225.786z
			"/>
		<path d="M1262.073,225.976c0.142-0.428,1.062-0.075,1.517-0.19c-0.005,0.185-0.232,0.147-0.379,0.19
			c-0.429,0.141-0.074,1.063-0.189,1.517c-0.887,0.192,0.033-1.425-0.568-1.517C1262.326,225.976,1262.198,225.976,1262.073,225.976
			z"/>
		<path d="M1264.728,225.786c0.577-0.008,1.248-0.109,1.139,0.568c-0.488-0.339-0.912-0.473-1.139,0.19
			c-0.138,0.517,0.377,0.381,0.38,0.758c0.377-0.002,0.24-0.519,0.759-0.379c0.102,0.932-1.304,0.565-1.519,0.188
			C1264.225,226.421,1264.477,226.103,1264.728,225.786z"/>
		<path d="M1268.141,225.786c0.441,0.442-0.183,1.952,1.137,1.518c-0.116,0.405-1.166,0.177-1.325,0
			C1268.451,226.883,1267.807,226.04,1268.141,225.786z"/>
		<path d="M1269.467,225.786c0.687-0.179,0.265,0.747,0.381,1.139c0.026,0.414,0.478,0.406,0.947,0.379
			c-0.119,0.405-1.168,0.177-1.328,0C1269.467,226.797,1269.467,226.292,1269.467,225.786z"/>
		<path d="M1272.311,225.976c-0.124,0.567-0.403-0.182-0.758,0c-0.17,0.612,0.619,0.266,0.758,0.568c0,0.253,0,0.506,0,0.758
			c-0.301,0.276-1.505,0.392-1.326-0.379c0.472-0.029,0.587,0.298,0.947,0.379c0.191-0.633-0.264-0.622-0.758-0.569
			c0.024-0.34-0.232-0.399-0.189-0.758C1271.237,225.706,1272.059,225.706,1272.311,225.976z"/>
		<path d="M1265.676,234.317c-0.85,0.376-2.207,0.215-2.654-0.379c-0.393-0.828-0.136-1.987,0.189-2.654
			c0.162-0.122,0.635-0.039,0.758-0.188c0.17-0.208,0.756-0.258,1.328,0c0.567,0.256,0.61,0.46,0.758,1.137
			c0.035,0.158,0.185,0.187,0.189,0.379C1266.264,233.177,1265.916,233.842,1265.676,234.317z M1263.78,231.852
			c-0.466,0.805-0.164,2.25,0.947,2.085C1266.256,233.448,1265.126,230.491,1263.78,231.852z"/>
		<path d="M1270.795,234.317c-0.715,0.149-1.606,0.332-2.275,0c-0.396-0.488-0.762-1.428-0.567-2.273
			c0.008-0.038,0.18-0.025,0.188-0.19c0.008-0.158,0.269-0.305,0.189-0.569c0.161-0.121,0.635-0.039,0.758-0.188
			c0.17-0.208,0.756-0.258,1.327,0c0.254,0.114,0.688,0.449,0.759,0.567c0.104,0.177-0.053,0.558,0,0.759
			c0.013,0.048,0.18,0.017,0.188,0.189C1271.384,232.996,1271.069,233.876,1270.795,234.317z M1268.709,232.042
			c-0.017,0.712,0.006,1.446,0.188,1.706c0.069,0.098,0.438-0.039,0.379,0.189c1.738,0.314,1.703-2.566,0.189-2.465
			C1269.081,231.528,1269.096,231.986,1268.709,232.042z"/>
		<path d="M1246.148,231.094c0.809,0.076,1.953-0.185,2.466,0.188c0.373,0.396,0.145,1.26,0,1.707
			c-0.455,0.114-0.865,0.272-1.519,0.189c-0.49,0.204,0.183,1.573-0.758,1.327C1245.935,233.708,1246.246,232.197,1246.148,231.094z
			 M1246.905,232.421c0.443,0.389,1.4,0.14,1.139-0.759c-0.379,0-0.76,0-1.139,0
			C1246.905,231.915,1246.905,232.168,1246.905,232.421z"/>
		<path d="M1249.371,231.094c0.127,0,0.252,0,0.379,0c0.759,0.004,0.237,1.038,0.379,1.706c0.141,0.66-0.027,1.143,0.758,1.138
			c0.154-0.037,0.189-0.189,0.38-0.189c0.561-0.45-0.181-2.203,0.381-2.654c0.834-0.228,0.518,0.611,0.567,1.137
			c0.058,0.598-0.045,1.287,0,1.707c-0.461,0.635-2.016,0.795-2.654,0.19C1249.239,233.374,1249.412,232.128,1249.371,231.094z"/>
		<path d="M1252.973,231.094c0.253,0,0.506,0,0.76,0c0,0.885,0,1.769,0,2.654c0.084,0.547,1.433-0.169,1.517,0.38
			c0.059,0.795-1.588,0.191-2.275,0.378C1252.973,233.369,1252.973,232.231,1252.973,231.094z"/>
		<path d="M1256.006,231.094c0.189,0,0.38,0,0.569,0c0,0.82,0,1.643,0,2.465c0.063,0.756,1.556,0.087,1.896,0.569
			c-0.219,0.728-1.66,0.233-2.465,0.378C1256.006,233.369,1256.006,232.231,1256.006,231.094z"/>
		<path d="M1259.799,231.094c0.947,0,1.896,0,2.844,0c0.086,0.593-0.403,0.605-0.946,0.567c-0.166,0.911,0.378,2.528-0.381,2.845
			c-0.809,0.009-0.183-1.755-0.38-2.464C1260.928,231.355,1259.59,231.997,1259.799,231.094z"/>
		<path d="M1271.932,231.094c0.875,0.01,1.854-0.084,2.465,0.188c-0.039,0.594,0.129,1.393-0.188,1.707
			c-0.275,0.292-0.971,0.167-1.518,0.189c-0.544,0.024,0.163,1.301-0.38,1.327c-0.898,0.336-0.034-0.982-0.379-1.327
			c-0.178-0.178-0.049-0.076,0-0.759c0.019-0.25-0.014-0.508,0-0.758C1271.932,231.473,1271.932,231.284,1271.932,231.094z
			 M1272.501,232.421c0.425,0.37,1.361,0.102,1.327-0.568c-0.244-0.262-0.823-0.188-1.327-0.19
			C1272.501,231.915,1272.501,232.168,1272.501,232.421z"/>
		<path d="M1274.966,231.094c0.884,0,1.77,0,2.653,0c0.105,0.927-1.189,0.453-1.896,0.567c-0.247,1.133,1.106,0.663,1.896,0.759
			c0.2,1.148-1.839,0.058-1.896,0.947c-0.084,0.97,1.341,0.43,2.086,0.569c0.003,1.009-2.271,0.555-2.844,0.379
			C1274.966,233.243,1274.966,232.168,1274.966,231.094z"/>
		<path d="M1278.188,231.094c0.189,0,0.381,0,0.568,0c0.558-0.042,0.567,0.662,0.759,0.948c0.047,0.068,0.353,0.128,0.379,0.188
			c0.137,0.3,0.012,0.6,0.38,0.759c0.555-0.205-0.175-1.691,0.379-1.896c0.676,0.008,0.357,0.962,0.381,1.517
			c0.024,0.651-0.021,1.41,0,1.896c-0.303-0.062-0.737,0.02-0.949-0.189c-0.167-0.166-0.041-0.567-0.189-0.758
			c-0.271-0.35-0.764-0.628-0.758-1.138c-0.557,0.266,0.176,1.819-0.38,2.085C1277.617,234.32,1278.438,232.172,1278.188,231.094z"
			/>
		<path d="M1257.523,211.945c0.189,0,0.38,0,0.569,0c0.101,0.658,0.507,1.011,0.567,1.707c-0.518,0.138-0.382-0.377-0.759-0.379
			c-0.584-0.142-0.363,0.521-0.947,0.379C1257.016,212.956,1257.422,212.603,1257.523,211.945z"/>
		<path d="M1272.311,211.945c0.19,0,0.38,0,0.569,0c0.061,0.636,0.193,1.195,0.568,1.518c-0.284,0.627-0.464-0.395-0.947-0.189
			c-0.614-0.235-0.146,0.613-0.76,0.379C1271.885,213.037,1272.086,212.478,1272.311,211.945z"/>
		<path d="M1256.196,214.6c0.396-0.122,0.264,0.215,0.381,0.379c0.062,0.089,0.346,0.299,0.378,0.379
			c0.112,0.27,0.122,0.826,0.189,1.137c-0.25-0.065-0.299-0.332-0.567-0.378c-0.734-0.21-0.676,0.671-1.14,0.189
			C1255.737,215.783,1255.967,215.192,1256.196,214.6z"/>
		<path d="M1251.836,214.6c0.819,0.127,0.854,1.042,0.947,1.895c-0.225-0.308-1.199-0.688-1.326,0
			C1250.936,215.962,1251.842,215.249,1251.836,214.6z"/>
		<path d="M1263.4,220.287c0.189,0,0.38,0,0.568,0c0.152,0.608,0.562,0.957,0.569,1.707c-0.422,0.104-0.271-0.361-0.569-0.379
			c-0.432-0.053-0.712,0.046-0.758,0.379C1262.651,221.544,1263.439,220.845,1263.4,220.287z"/>
		<path d="M1271.174,220.287c0.252,0,0.506,0,0.758,0c0.062,0.636,0.195,1.195,0.569,1.518c-0.187,0.581-0.641-0.084-0.759-0.19
			c-0.718-0.272-0.363,0.521-0.947,0.379C1270.737,221.24,1271.232,221.042,1271.174,220.287z"/>
		<path d="M1266.623,225.786c0.188,0,0.379,0,0.567,0c0.062,0.697,0.47,1.05,0.569,1.707c-0.322,0.07-0.357-0.147-0.378-0.379
			c-0.254,0-0.506,0-0.76,0c-0.191,0.123-0.195,0.437-0.568,0.379C1266.155,226.834,1266.562,226.482,1266.623,225.786z"/>
	</g>
</g>
<g id="thin">
	<g>
		<line fill="none" stroke="#0000FF" stroke-width="1.000000e-04" x1="193.018" y1="76.876" x2="193.018" y2="459.377"/>
		<polygon fill="none" stroke="#FF0000" stroke-width="1.000000e-04" points="169.848,76.876 169.848,96.898 11.924,96.898 
			11.924,121.898 169.848,121.898 169.848,459.377 216.188,459.377 216.188,76.876 		"/>
		<g>
			<rect x="21.754" y="99.732" fill="none" stroke="#0000FF" stroke-width="1.000000e-04" width="137" height="19.667"/>
			<g enable-background="new    ">
				<path fill="none" stroke="#0000FF" stroke-width="0.01" d="M34.7,106.078c0.706-0.084,1.632-0.156,2.811-0.156
					c1.447,0,2.508,0.24,3.181,0.672c0.623,0.384,0.993,0.972,0.993,1.69c0,0.732-0.303,1.308-0.875,1.728
					c-0.774,0.588-2.037,0.888-3.468,0.888c-0.438,0-0.841-0.013-1.178-0.072v3.238H34.7V106.078z M36.164,109.975
					c0.319,0.061,0.724,0.084,1.212,0.084c1.767,0,2.844-0.611,2.844-1.727c0-1.067-1.06-1.584-2.676-1.584
					c-0.64,0-1.128,0.036-1.38,0.084V109.975z"/>
				<path fill="none" stroke="#0000FF" stroke-width="0.01" d="M53.351,109.939c0,2.782-2.373,4.258-5.269,4.258
					c-2.996,0-5.1-1.655-5.1-4.102c0-2.566,2.238-4.246,5.269-4.246C51.348,105.849,53.351,107.541,53.351,109.939z M44.548,110.071
					c0,1.728,1.312,3.274,3.618,3.274c2.323,0,3.636-1.523,3.636-3.358c0-1.606-1.178-3.286-3.618-3.286
					C45.76,106.701,44.548,108.296,44.548,110.071z"/>
				<path fill="none" stroke="#0000FF" stroke-width="0.01" d="M55.255,105.981h1.464v7.208h4.848v0.876h-6.312V105.981z"/>
				<path fill="none" stroke="#0000FF" stroke-width="0.01" d="M64.665,105.981v8.084h-1.464v-8.084H64.665z"/>
				<path fill="none" stroke="#0000FF" stroke-width="0.01" d="M75.151,113.801c-0.539,0.191-1.616,0.396-2.996,0.396
					c-3.197,0-5.604-1.451-5.604-4.102c0-2.53,2.407-4.246,5.925-4.246c1.413,0,2.306,0.216,2.692,0.36l-0.354,0.852
					c-0.555-0.192-1.346-0.336-2.289-0.336c-2.659,0-4.426,1.211-4.426,3.334c0,1.979,1.599,3.25,4.358,3.25
					c0.893,0,1.802-0.132,2.391-0.336L75.151,113.801z"/>
				<path fill="none" stroke="#0000FF" stroke-width="0.01" d="M82.862,110.275h-4.41v2.914h4.915v0.876h-6.379v-8.084h6.126v0.876
					h-4.662v2.555h4.41V110.275z"/>
			</g>
			<g enable-background="new    ">
				<path fill="none" stroke="#0000FF" stroke-width="0.01" d="M116.897,106.423c0.655-0.096,1.689-0.168,2.741-0.168
					c1.5,0,2.466,0.18,3.19,0.588c0.604,0.312,0.966,0.791,0.966,1.427c0,0.78-0.742,1.464-1.966,1.775v0.023
					c1.104,0.192,2.397,0.828,2.397,2.027c0,0.695-0.397,1.224-0.983,1.619c-0.811,0.516-2.121,0.756-4.018,0.756
					c-1.035,0-1.828-0.048-2.328-0.097V106.423z M118.397,109.734h1.362c1.586,0,2.517-0.576,2.517-1.355
					c0-0.947-1.035-1.319-2.552-1.319c-0.69,0-1.086,0.036-1.328,0.072V109.734z M118.397,113.607
					c0.293,0.036,0.724,0.049,1.259,0.049c1.552,0,2.983-0.396,2.983-1.571c0-1.104-1.362-1.56-3-1.56h-1.241V113.607z"/>
				<path fill="none" stroke="#0000FF" stroke-width="0.01" d="M136.178,110.273c0,2.782-2.431,4.258-5.397,4.258
					c-3.069,0-5.225-1.655-5.225-4.102c0-2.566,2.293-4.246,5.397-4.246C134.126,106.183,136.178,107.875,136.178,110.273z
					 M127.16,110.405c0,1.728,1.345,3.274,3.708,3.274c2.379,0,3.724-1.523,3.724-3.358c0-1.606-1.207-3.286-3.707-3.286
					C128.401,107.035,127.16,108.63,127.16,110.405z"/>
				<path fill="none" stroke="#0000FF" stroke-width="0.01" d="M144.027,114.399l-1.483-1.787c-0.604-0.684-0.983-1.127-1.345-1.595
					h-0.035c-0.328,0.468-0.655,0.899-1.259,1.606l-1.396,1.775h-1.724l3.552-4.09l-3.414-3.994h1.742l1.535,1.896
					c0.431,0.527,0.758,0.936,1.069,1.367h0.052c0.328-0.479,0.621-0.852,1.052-1.367l1.586-1.896h1.724l-3.535,3.935l3.621,4.149
					H144.027z"/>
			</g>
			<g enable-background="new    ">
				<path fill="none" stroke="#0000FF" stroke-width="0.01" d="M89.906,104.802c0.29-0.039,0.67-0.072,1.154-0.072
					c0.594,0,1.03,0.11,1.307,0.31c0.255,0.178,0.408,0.449,0.408,0.781c0,0.338-0.125,0.604-0.359,0.798
					c-0.318,0.271-0.836,0.41-1.424,0.41c-0.18,0-0.345-0.006-0.484-0.033v1.495h-0.601V104.802z M90.507,106.602
					c0.131,0.027,0.297,0.039,0.498,0.039c0.726,0,1.168-0.283,1.168-0.798c0-0.493-0.436-0.731-1.099-0.731
					c-0.263,0-0.463,0.017-0.567,0.039V106.602z"/>
				<path fill="none" stroke="#0000FF" stroke-width="0.01" d="M94.188,104.757v2.21c0,0.837,0.463,1.191,1.085,1.191
					c0.691,0,1.134-0.366,1.134-1.191v-2.21h0.608v2.177c0,1.146-0.753,1.617-1.762,1.617c-0.954,0-1.673-0.438-1.673-1.595v-2.199
					H94.188z"/>
				<path fill="none" stroke="#0000FF" stroke-width="0.01" d="M98.062,104.807c0.263-0.044,0.677-0.077,1.099-0.077
					c0.601,0,0.988,0.083,1.279,0.271c0.242,0.144,0.387,0.365,0.387,0.659c0,0.359-0.297,0.676-0.788,0.819v0.011
					c0.442,0.089,0.96,0.383,0.96,0.937c0,0.321-0.159,0.565-0.394,0.748c-0.325,0.238-0.85,0.349-1.61,0.349
					c-0.415,0-0.733-0.022-0.933-0.044V104.807z M98.664,106.336h0.546c0.636,0,1.009-0.267,1.009-0.626
					c0-0.438-0.415-0.609-1.023-0.609c-0.277,0-0.436,0.017-0.533,0.033V106.336z M98.664,108.125
					c0.118,0.017,0.291,0.021,0.505,0.021c0.622,0,1.196-0.183,1.196-0.726c0-0.509-0.546-0.72-1.203-0.72h-0.498V108.125z"/>
				<path fill="none" stroke="#0000FF" stroke-width="0.01" d="M101.812,104.757h0.601v3.329h1.991v0.404h-2.592V104.757z"/>
				<path fill="none" stroke="#0000FF" stroke-width="0.01" d="M105.678,104.757v3.733h-0.601v-3.733H105.678z"/>
				<path fill="none" stroke="#0000FF" stroke-width="0.01" d="M109.986,108.369c-0.221,0.089-0.664,0.183-1.23,0.183
					c-1.313,0-2.302-0.67-2.302-1.894c0-1.169,0.988-1.961,2.433-1.961c0.581,0,0.947,0.1,1.106,0.166l-0.146,0.394
					c-0.228-0.089-0.553-0.155-0.94-0.155c-1.092,0-1.818,0.56-1.818,1.54c0,0.913,0.657,1.501,1.79,1.501
					c0.367,0,0.74-0.062,0.982-0.155L109.986,108.369z"/>
			</g>
			<g enable-background="new    ">
				<path fill="none" stroke="#0000FF" stroke-width="0.01" d="M96.191,115.009c-0.221,0.089-0.664,0.183-1.23,0.183
					c-1.313,0-2.302-0.67-2.302-1.894c0-1.169,0.988-1.961,2.433-1.961c0.581,0,0.947,0.1,1.106,0.166l-0.146,0.394
					c-0.228-0.089-0.553-0.155-0.94-0.155c-1.092,0-1.818,0.56-1.818,1.54c0,0.913,0.657,1.501,1.79,1.501
					c0.367,0,0.74-0.062,0.982-0.155L96.191,115.009z"/>
				<path fill="none" stroke="#0000FF" stroke-width="0.01" d="M97.729,113.958l-0.484,1.174h-0.622l1.583-3.733h0.726l1.59,3.733
					h-0.643l-0.498-1.174H97.729z M99.256,113.581l-0.456-1.074c-0.104-0.244-0.173-0.466-0.242-0.682h-0.014
					c-0.069,0.222-0.145,0.448-0.235,0.676l-0.456,1.08H99.256z"/>
				<path fill="none" stroke="#0000FF" stroke-width="0.01" d="M101.209,111.398h0.601v3.329h1.991v0.404h-2.592V111.398z"/>
				<path fill="none" stroke="#0000FF" stroke-width="0.01" d="M104.475,111.398h0.601v3.329h1.991v0.404h-2.592V111.398z"/>
			</g>
		</g>
	</g>
	<g>
		<line fill="none" stroke="#0000FF" stroke-width="1.000000e-04" x1="241.821" y1="28.072" x2="241.821" y2="410.573"/>
		<polygon fill="none" stroke="#FF0000" stroke-width="1.000000e-04" points="218.652,28.072 218.652,48.094 60.728,48.094 
			60.728,73.094 218.652,73.094 218.652,410.573 264.992,410.573 264.992,28.072 		"/>
		<g>
			<rect x="70.558" y="50.928" fill="none" stroke="#0000FF" stroke-width="1.000000e-04" width="137" height="19.667"/>
			<g enable-background="new    ">
				<path fill="none" stroke="#0000FF" stroke-width="0.01" d="M83.505,57.273c0.707-0.084,1.632-0.156,2.811-0.156
					c1.447,0,2.508,0.24,3.181,0.672c0.623,0.384,0.993,0.972,0.993,1.69c0,0.732-0.303,1.308-0.875,1.728
					c-0.774,0.588-2.037,0.888-3.467,0.888c-0.438,0-0.841-0.013-1.178-0.072v3.238h-1.464V57.273z M84.969,61.17
					c0.32,0.061,0.724,0.084,1.212,0.084c1.767,0,2.844-0.611,2.844-1.727c0-1.067-1.06-1.584-2.676-1.584
					c-0.64,0-1.128,0.036-1.38,0.084V61.17z"/>
				<path fill="none" stroke="#0000FF" stroke-width="0.01" d="M102.155,61.134c0,2.782-2.373,4.258-5.268,4.258
					c-2.996,0-5.1-1.655-5.1-4.102c0-2.566,2.238-4.246,5.268-4.246C100.152,57.044,102.155,58.736,102.155,61.134z M93.353,61.266
					c0,1.728,1.313,3.274,3.619,3.274c2.323,0,3.635-1.523,3.635-3.358c0-1.606-1.178-3.286-3.618-3.286
					C94.564,57.896,93.353,59.492,93.353,61.266z"/>
				<path fill="none" stroke="#0000FF" stroke-width="0.01" d="M104.06,57.176h1.464v7.208h4.847v0.876h-6.311V57.176z"/>
				<path fill="none" stroke="#0000FF" stroke-width="0.01" d="M113.47,57.176v8.084h-1.464v-8.084H113.47z"/>
				<path fill="none" stroke="#0000FF" stroke-width="0.01" d="M123.956,64.997c-0.539,0.191-1.616,0.396-2.996,0.396
					c-3.198,0-5.604-1.451-5.604-4.102c0-2.53,2.407-4.246,5.924-4.246c1.414,0,2.306,0.216,2.693,0.36l-0.354,0.852
					c-0.555-0.192-1.346-0.336-2.289-0.336c-2.659,0-4.426,1.211-4.426,3.334c0,1.979,1.599,3.25,4.359,3.25
					c0.892,0,1.801-0.132,2.39-0.336L123.956,64.997z"/>
				<path fill="none" stroke="#0000FF" stroke-width="0.01" d="M131.667,61.47h-4.41v2.914h4.915v0.876h-6.378v-8.084h6.126v0.876
					h-4.662v2.555h4.41V61.47z"/>
			</g>
			<g enable-background="new    ">
				<path fill="none" stroke="#0000FF" stroke-width="0.01" d="M165.701,57.62c0.655-0.096,1.689-0.168,2.741-0.168
					c1.5,0,2.466,0.18,3.19,0.588c0.604,0.312,0.965,0.791,0.965,1.427c0,0.78-0.741,1.464-1.965,1.775v0.023
					c1.104,0.192,2.396,0.828,2.396,2.027c0,0.695-0.396,1.224-0.983,1.619c-0.81,0.516-2.12,0.756-4.018,0.756
					c-1.034,0-1.827-0.048-2.327-0.097V57.62z M167.201,60.93h1.362c1.586,0,2.518-0.576,2.518-1.355
					c0-0.947-1.035-1.319-2.553-1.319c-0.689,0-1.086,0.036-1.327,0.072V60.93z M167.201,64.803
					c0.293,0.036,0.725,0.049,1.259,0.049c1.552,0,2.982-0.396,2.982-1.571c0-1.104-1.361-1.56-3-1.56h-1.241V64.803z"/>
				<path fill="none" stroke="#0000FF" stroke-width="0.01" d="M184.981,61.469c0,2.783-2.432,4.258-5.397,4.258
					c-3.068,0-5.224-1.655-5.224-4.102c0-2.566,2.293-4.246,5.396-4.246C182.93,57.379,184.981,59.071,184.981,61.469z
					 M175.964,61.601c0,1.728,1.345,3.274,3.707,3.274c2.379,0,3.725-1.523,3.725-3.358c0-1.606-1.207-3.286-3.708-3.286
					C177.205,58.231,175.964,59.827,175.964,61.601z"/>
				<path fill="none" stroke="#0000FF" stroke-width="0.01" d="M192.831,65.595l-1.482-1.787c-0.604-0.684-0.983-1.127-1.346-1.595
					h-0.034c-0.327,0.468-0.655,0.899-1.259,1.606l-1.396,1.775h-1.725l3.553-4.09l-3.414-3.994h1.741l1.534,1.896
					c0.432,0.527,0.759,0.936,1.069,1.367h0.052c0.327-0.479,0.621-0.852,1.052-1.367l1.586-1.896h1.725l-3.534,3.935l3.62,4.149
					H192.831z"/>
			</g>
			<g enable-background="new    ">
				<path fill="none" stroke="#0000FF" stroke-width="0.01" d="M138.71,55.998c0.29-0.039,0.67-0.072,1.154-0.072
					c0.594,0,1.03,0.11,1.307,0.31c0.255,0.178,0.408,0.449,0.408,0.781c0,0.338-0.125,0.604-0.359,0.798
					c-0.318,0.271-0.836,0.41-1.424,0.41c-0.18,0-0.345-0.006-0.484-0.033v1.495h-0.601V55.998z M139.311,57.797
					c0.131,0.027,0.297,0.039,0.498,0.039c0.726,0,1.168-0.283,1.168-0.798c0-0.493-0.436-0.731-1.099-0.731
					c-0.263,0-0.463,0.017-0.567,0.039V57.797z"/>
				<path fill="none" stroke="#0000FF" stroke-width="0.01" d="M142.991,55.953v2.21c0,0.837,0.463,1.191,1.085,1.191
					c0.691,0,1.134-0.366,1.134-1.191v-2.21h0.608v2.177c0,1.146-0.753,1.617-1.762,1.617c-0.954,0-1.673-0.438-1.673-1.595v-2.199
					H142.991z"/>
				<path fill="none" stroke="#0000FF" stroke-width="0.01" d="M146.866,56.002c0.263-0.044,0.677-0.077,1.099-0.077
					c0.601,0,0.988,0.083,1.279,0.271c0.242,0.144,0.387,0.365,0.387,0.659c0,0.359-0.297,0.676-0.788,0.819v0.011
					c0.442,0.089,0.96,0.383,0.96,0.937c0,0.321-0.159,0.565-0.394,0.748c-0.325,0.238-0.85,0.349-1.61,0.349
					c-0.415,0-0.733-0.022-0.933-0.044V56.002z M147.467,57.532h0.546c0.636,0,1.009-0.267,1.009-0.626
					c0-0.438-0.415-0.609-1.023-0.609c-0.277,0-0.436,0.017-0.533,0.033V57.532z M147.467,59.321
					c0.118,0.017,0.291,0.021,0.505,0.021c0.622,0,1.196-0.183,1.196-0.726c0-0.509-0.546-0.72-1.203-0.72h-0.498V59.321z"/>
				<path fill="none" stroke="#0000FF" stroke-width="0.01" d="M150.616,55.953h0.601v3.329h1.991v0.404h-2.592V55.953z"/>
				<path fill="none" stroke="#0000FF" stroke-width="0.01" d="M154.482,55.953v3.733h-0.601v-3.733H154.482z"/>
				<path fill="none" stroke="#0000FF" stroke-width="0.01" d="M158.79,59.564c-0.221,0.089-0.664,0.183-1.23,0.183
					c-1.313,0-2.302-0.67-2.302-1.894c0-1.169,0.988-1.961,2.433-1.961c0.581,0,0.947,0.1,1.106,0.166l-0.146,0.394
					c-0.228-0.089-0.553-0.155-0.94-0.155c-1.092,0-1.818,0.56-1.818,1.54c0,0.913,0.657,1.501,1.79,1.501
					c0.367,0,0.74-0.062,0.982-0.155L158.79,59.564z"/>
			</g>
			<g enable-background="new    ">
				<path fill="none" stroke="#0000FF" stroke-width="0.01" d="M144.996,66.205c-0.221,0.089-0.664,0.183-1.23,0.183
					c-1.313,0-2.302-0.67-2.302-1.894c0-1.169,0.988-1.961,2.433-1.961c0.581,0,0.947,0.1,1.106,0.166l-0.146,0.394
					c-0.228-0.089-0.553-0.155-0.94-0.155c-1.092,0-1.818,0.56-1.818,1.54c0,0.913,0.657,1.501,1.79,1.501
					c0.367,0,0.74-0.062,0.982-0.155L144.996,66.205z"/>
				<path fill="none" stroke="#0000FF" stroke-width="0.01" d="M146.534,65.153l-0.484,1.174h-0.622l1.583-3.733h0.726l1.59,3.733
					h-0.643l-0.498-1.174H146.534z M148.061,64.776l-0.456-1.074c-0.104-0.244-0.173-0.466-0.242-0.682h-0.014
					c-0.069,0.222-0.145,0.448-0.235,0.676l-0.456,1.08H148.061z"/>
				<path fill="none" stroke="#0000FF" stroke-width="0.01" d="M150.014,62.593h0.601v3.329h1.991v0.404h-2.592V62.593z"/>
				<path fill="none" stroke="#0000FF" stroke-width="0.01" d="M153.279,62.593h0.601v3.329h1.991v0.404h-2.592V62.593z"/>
			</g>
		</g>
	</g>
	<g>
		<line fill="none" stroke="#0000FF" stroke-width="1.000000e-04" x1="142.991" y1="506.569" x2="142.991" y2="124.068"/>
		<polygon fill="none" stroke="#FF0000" stroke-width="1.000000e-04" points="166.161,506.569 166.161,486.546 324.086,486.546 
			324.086,461.546 166.161,461.546 166.161,124.068 119.822,124.068 119.822,506.569 		"/>
		<g>
			<rect x="177.256" y="464.046" fill="none" stroke="#0000FF" stroke-width="1.000000e-04" width="137" height="19.667"/>
			<g enable-background="new    ">
				<path fill="none" stroke="#0000FF" stroke-width="0.01" d="M301.308,477.365c-0.707,0.084-1.633,0.156-2.811,0.156
					c-1.447,0-2.508-0.24-3.181-0.672c-0.623-0.384-0.993-0.972-0.993-1.69c0-0.732,0.303-1.308,0.875-1.728
					c0.774-0.588,2.036-0.888,3.467-0.888c0.438,0,0.842,0.013,1.179,0.072v-3.238h1.464V477.365z M299.844,473.467
					c-0.32-0.061-0.724-0.084-1.212-0.084c-1.768,0-2.845,0.611-2.845,1.727c0,1.067,1.061,1.584,2.677,1.584
					c0.639,0,1.127-0.036,1.38-0.084V473.467z"/>
				<path fill="none" stroke="#0000FF" stroke-width="0.01" d="M282.657,473.503c0-2.782,2.373-4.258,5.269-4.258
					c2.995,0,5.1,1.655,5.1,4.102c0,2.566-2.239,4.246-5.269,4.246C284.66,477.593,282.657,475.902,282.657,473.503z
					 M291.46,473.372c0-1.728-1.313-3.274-3.619-3.274c-2.322,0-3.635,1.523-3.635,3.358c0,1.606,1.178,3.286,3.618,3.286
					C290.248,476.742,291.46,475.146,291.46,473.372z"/>
				<path fill="none" stroke="#0000FF" stroke-width="0.01" d="M280.753,477.461h-1.464v-7.208h-4.848v-0.876h6.312V477.461z"/>
				<path fill="none" stroke="#0000FF" stroke-width="0.01" d="M271.343,477.461v-8.084h1.464v8.084H271.343z"/>
				<path fill="none" stroke="#0000FF" stroke-width="0.01" d="M260.856,469.641c0.538-0.191,1.615-0.396,2.996-0.396
					c3.197,0,5.604,1.451,5.604,4.102c0,2.53-2.407,4.246-5.925,4.246c-1.414,0-2.306-0.216-2.692-0.36l0.353-0.852
					c0.556,0.192,1.347,0.336,2.289,0.336c2.659,0,4.427-1.211,4.427-3.334c0-1.979-1.599-3.25-4.359-3.25
					c-0.892,0-1.801,0.132-2.39,0.336L260.856,469.641z"/>
				<path fill="none" stroke="#0000FF" stroke-width="0.01" d="M253.146,473.167h4.41v-2.914h-4.915v-0.876h6.379v8.084h-6.126
					v-0.876h4.662v-2.555h-4.41V473.167z"/>
			</g>
			<g enable-background="new    ">
				<path fill="none" stroke="#0000FF" stroke-width="0.01" d="M219.11,477.019c-0.655,0.096-1.689,0.168-2.741,0.168
					c-1.5,0-2.466-0.18-3.19-0.588c-0.604-0.312-0.965-0.791-0.965-1.427c0-0.78,0.741-1.464,1.965-1.775v-0.023
					c-1.104-0.192-2.396-0.828-2.396-2.027c0-0.695,0.396-1.224,0.983-1.619c0.81-0.516,2.12-0.756,4.018-0.756
					c1.034,0,1.827,0.048,2.327,0.097V477.019z M217.61,469.835c-0.293-0.036-0.725-0.049-1.259-0.049
					c-1.552,0-2.982,0.396-2.982,1.571c0,1.104,1.361,1.56,3,1.56h1.241V469.835z M217.61,473.708h-1.362
					c-1.586,0-2.518,0.576-2.518,1.355c0,0.947,1.035,1.319,2.552,1.319c0.69,0,1.087-0.036,1.328-0.072V473.708z"/>
				<path fill="none" stroke="#0000FF" stroke-width="0.01" d="M199.83,473.169c0-2.782,2.432-4.258,5.397-4.258
					c3.068,0,5.224,1.655,5.224,4.102c0,2.566-2.293,4.246-5.396,4.246C201.882,477.259,199.83,475.568,199.83,473.169z
					 M208.848,473.038c0-1.728-1.345-3.274-3.707-3.274c-2.379,0-3.724,1.523-3.724,3.358c0,1.606,1.206,3.286,3.707,3.286
					C207.606,476.408,208.848,474.812,208.848,473.038z"/>
				<path fill="none" stroke="#0000FF" stroke-width="0.01" d="M191.98,469.043l1.482,1.787c0.604,0.684,0.983,1.127,1.346,1.595
					h0.034c0.327-0.468,0.655-0.899,1.259-1.606l1.396-1.775h1.725l-3.553,4.09l3.414,3.994h-1.741l-1.534-1.896
					c-0.432-0.527-0.759-0.936-1.069-1.367h-0.052c-0.327,0.479-0.621,0.852-1.052,1.367l-1.586,1.896h-1.725l3.535-3.935
					l-3.621-4.149H191.98z"/>
			</g>
			<g enable-background="new    ">
				<path fill="none" stroke="#0000FF" stroke-width="0.01" d="M246.103,478.642c-0.29,0.039-0.671,0.072-1.154,0.072
					c-0.595,0-1.03-0.11-1.307-0.31c-0.256-0.178-0.407-0.449-0.407-0.781c0-0.338,0.124-0.604,0.359-0.798
					c0.317-0.271,0.836-0.41,1.424-0.41c0.18,0,0.346,0.006,0.483,0.033v-1.495h0.602V478.642z M245.501,476.842
					c-0.131-0.027-0.297-0.039-0.497-0.039c-0.727,0-1.169,0.283-1.169,0.798c0,0.493,0.436,0.731,1.1,0.731
					c0.263,0,0.463-0.017,0.566-0.039V476.842z"/>
				<path fill="none" stroke="#0000FF" stroke-width="0.01" d="M241.82,478.687v-2.21c0-0.837-0.463-1.191-1.085-1.191
					c-0.691,0-1.134,0.366-1.134,1.191v2.21h-0.608v-2.177c0-1.146,0.754-1.617,1.763-1.617c0.954,0,1.673,0.438,1.673,1.595v2.199
					H241.82z"/>
				<path fill="none" stroke="#0000FF" stroke-width="0.01" d="M237.946,478.637c-0.263,0.044-0.678,0.077-1.099,0.077
					c-0.602,0-0.989-0.083-1.279-0.271c-0.242-0.144-0.387-0.365-0.387-0.659c0-0.359,0.297-0.676,0.788-0.819v-0.011
					c-0.442-0.089-0.961-0.383-0.961-0.937c0-0.321,0.159-0.565,0.394-0.748c0.325-0.238,0.851-0.349,1.611-0.349
					c0.414,0,0.732,0.022,0.933,0.044V478.637z M237.345,475.319c-0.117-0.017-0.29-0.021-0.504-0.021
					c-0.622,0-1.196,0.183-1.196,0.726c0,0.509,0.546,0.72,1.203,0.72h0.497V475.319z M237.345,477.108h-0.546
					c-0.636,0-1.009,0.267-1.009,0.626c0,0.438,0.414,0.609,1.022,0.609c0.276,0,0.436-0.017,0.532-0.033V477.108z"/>
				<path fill="none" stroke="#0000FF" stroke-width="0.01" d="M234.197,478.687h-0.602v-3.329h-1.99v-0.404h2.592V478.687z"/>
				<path fill="none" stroke="#0000FF" stroke-width="0.01" d="M230.33,478.687v-3.733h0.602v3.733H230.33z"/>
				<path fill="none" stroke="#0000FF" stroke-width="0.01" d="M226.022,475.076c0.222-0.089,0.664-0.183,1.23-0.183
					c1.313,0,2.302,0.67,2.302,1.894c0,1.169-0.988,1.961-2.433,1.961c-0.581,0-0.947-0.1-1.106-0.166l0.146-0.394
					c0.228,0.089,0.553,0.155,0.939,0.155c1.093,0,1.818-0.56,1.818-1.54c0-0.913-0.656-1.501-1.79-1.501
					c-0.366,0-0.74,0.062-0.981,0.155L226.022,475.076z"/>
			</g>
			<g enable-background="new    ">
				<path fill="none" stroke="#0000FF" stroke-width="0.01" d="M239.817,468.435c0.222-0.089,0.664-0.183,1.23-0.183
					c1.313,0,2.302,0.67,2.302,1.894c0,1.169-0.988,1.961-2.433,1.961c-0.581,0-0.947-0.1-1.106-0.166l0.146-0.394
					c0.228,0.089,0.553,0.155,0.939,0.155c1.093,0,1.818-0.56,1.818-1.54c0-0.913-0.656-1.501-1.79-1.501
					c-0.366,0-0.74,0.062-0.981,0.155L239.817,468.435z"/>
				<path fill="none" stroke="#0000FF" stroke-width="0.01" d="M238.28,469.487l0.483-1.174h0.622l-1.583,3.733h-0.726l-1.59-3.733
					h0.643l0.498,1.174H238.28z M236.752,469.864l0.456,1.074c0.104,0.244,0.173,0.466,0.242,0.682h0.014
					c0.069-0.222,0.146-0.448,0.235-0.676l0.456-1.08H236.752z"/>
				<path fill="none" stroke="#0000FF" stroke-width="0.01" d="M234.8,472.046h-0.602v-3.329h-1.99v-0.404h2.592V472.046z"/>
				<path fill="none" stroke="#0000FF" stroke-width="0.01" d="M231.534,472.046h-0.602v-3.329h-1.99v-0.404h2.592V472.046z"/>
			</g>
		</g>
	</g>
	<g>
		<line fill="none" stroke="#0000FF" stroke-width="1.000000e-04" x1="94.187" y1="555.374" x2="94.187" y2="172.874"/>
		<polygon fill="none" stroke="#FF0000" stroke-width="1.000000e-04" points="117.357,555.374 117.357,535.351 275.281,535.351 
			275.281,510.351 117.357,510.351 117.357,172.874 71.018,172.874 71.018,555.374 		"/>
		<g>
			<rect x="128.451" y="512.851" fill="none" stroke="#0000FF" stroke-width="1.000000e-04" width="137" height="19.666"/>
			<g enable-background="new    ">
				<path fill="none" stroke="#0000FF" stroke-width="0.01" d="M252.505,526.171c-0.707,0.084-1.633,0.156-2.811,0.156
					c-1.447,0-2.508-0.24-3.181-0.672c-0.623-0.384-0.993-0.972-0.993-1.69c0-0.732,0.303-1.308,0.875-1.728
					c0.774-0.588,2.036-0.888,3.467-0.888c0.438,0,0.842,0.013,1.179,0.072v-3.238h1.464V526.171z M251.041,522.274
					c-0.32-0.061-0.724-0.084-1.212-0.084c-1.768,0-2.845,0.611-2.845,1.727c0,1.067,1.061,1.584,2.677,1.584
					c0.639,0,1.127-0.036,1.38-0.084V522.274z"/>
				<path fill="none" stroke="#0000FF" stroke-width="0.01" d="M233.854,522.31c0-2.782,2.373-4.258,5.269-4.258
					c2.995,0,5.1,1.655,5.1,4.102c0,2.566-2.239,4.246-5.269,4.246C235.857,526.4,233.854,524.708,233.854,522.31z M242.657,522.178
					c0-1.728-1.313-3.274-3.619-3.274c-2.322,0-3.635,1.523-3.635,3.358c0,1.606,1.178,3.286,3.618,3.286
					C241.445,525.548,242.657,523.953,242.657,522.178z"/>
				<path fill="none" stroke="#0000FF" stroke-width="0.01" d="M231.95,526.268h-1.464v-7.208h-4.848v-0.876h6.312V526.268z"/>
				<path fill="none" stroke="#0000FF" stroke-width="0.01" d="M222.54,526.268v-8.084h1.464v8.084H222.54z"/>
				<path fill="none" stroke="#0000FF" stroke-width="0.01" d="M212.054,518.448c0.538-0.191,1.615-0.396,2.996-0.396
					c3.197,0,5.604,1.451,5.604,4.102c0,2.53-2.407,4.246-5.925,4.246c-1.414,0-2.306-0.216-2.692-0.36l0.353-0.852
					c0.556,0.192,1.347,0.336,2.289,0.336c2.659,0,4.427-1.211,4.427-3.334c0-1.979-1.599-3.25-4.359-3.25
					c-0.892,0-1.801,0.132-2.39,0.336L212.054,518.448z"/>
				<path fill="none" stroke="#0000FF" stroke-width="0.01" d="M204.343,521.974h4.41v-2.914h-4.915v-0.876h6.379v8.084h-6.126
					v-0.876h4.662v-2.555h-4.41V521.974z"/>
			</g>
			<g enable-background="new    ">
				<path fill="none" stroke="#0000FF" stroke-width="0.01" d="M170.308,525.824c-0.655,0.096-1.689,0.168-2.741,0.168
					c-1.5,0-2.466-0.18-3.19-0.588c-0.604-0.312-0.966-0.791-0.966-1.427c0-0.78,0.742-1.464,1.966-1.775v-0.023
					c-1.104-0.192-2.397-0.828-2.397-2.027c0-0.695,0.397-1.224,0.983-1.619c0.811-0.516,2.121-0.756,4.018-0.756
					c1.034,0,1.827,0.048,2.327,0.097V525.824z M168.808,518.64c-0.293-0.036-0.725-0.049-1.259-0.049
					c-1.552,0-2.983,0.396-2.983,1.571c0,1.104,1.362,1.56,3,1.56h1.241V518.64z M168.808,522.513h-1.362
					c-1.586,0-2.517,0.576-2.517,1.355c0,0.947,1.035,1.319,2.551,1.319c0.69,0,1.087-0.036,1.328-0.072V522.513z"/>
				<path fill="none" stroke="#0000FF" stroke-width="0.01" d="M151.027,521.974c0-2.782,2.431-4.258,5.397-4.258
					c3.069,0,5.225,1.655,5.225,4.102c0,2.566-2.293,4.246-5.397,4.246C153.079,526.064,151.027,524.373,151.027,521.974z
					 M160.045,521.842c0-1.728-1.345-3.274-3.708-3.274c-2.379,0-3.724,1.523-3.724,3.358c0,1.606,1.207,3.286,3.707,3.286
					C158.804,525.212,160.045,523.617,160.045,521.842z"/>
				<path fill="none" stroke="#0000FF" stroke-width="0.01" d="M143.178,517.848l1.483,1.787c0.604,0.684,0.983,1.127,1.345,1.595
					h0.035c0.328-0.468,0.655-0.899,1.259-1.606l1.396-1.775h1.724l-3.552,4.09l3.414,3.994h-1.742l-1.535-1.896
					c-0.431-0.527-0.758-0.936-1.069-1.367h-0.052c-0.328,0.479-0.621,0.852-1.052,1.367l-1.586,1.896h-1.724l3.535-3.935
					l-3.621-4.149H143.178z"/>
			</g>
			<g enable-background="new    ">
				<path fill="none" stroke="#0000FF" stroke-width="0.01" d="M197.298,527.447c-0.29,0.039-0.671,0.072-1.154,0.072
					c-0.595,0-1.03-0.11-1.307-0.31c-0.256-0.178-0.407-0.449-0.407-0.781c0-0.338,0.124-0.604,0.359-0.798
					c0.317-0.271,0.836-0.41,1.424-0.41c0.18,0,0.346,0.006,0.483,0.033v-1.495h0.602V527.447z M196.696,525.647
					c-0.131-0.027-0.297-0.039-0.497-0.039c-0.727,0-1.169,0.283-1.169,0.798c0,0.493,0.436,0.731,1.1,0.731
					c0.263,0,0.463-0.017,0.566-0.039V525.647z"/>
				<path fill="none" stroke="#0000FF" stroke-width="0.01" d="M193.016,527.492v-2.21c0-0.837-0.463-1.191-1.085-1.191
					c-0.691,0-1.134,0.366-1.134,1.191v2.21h-0.608v-2.177c0-1.146,0.754-1.617,1.763-1.617c0.954,0,1.673,0.438,1.673,1.595v2.199
					H193.016z"/>
				<path fill="none" stroke="#0000FF" stroke-width="0.01" d="M189.142,527.442c-0.263,0.044-0.678,0.077-1.099,0.077
					c-0.602,0-0.989-0.083-1.279-0.271c-0.242-0.144-0.387-0.365-0.387-0.659c0-0.359,0.297-0.676,0.788-0.819v-0.011
					c-0.442-0.089-0.961-0.383-0.961-0.937c0-0.321,0.159-0.565,0.394-0.748c0.325-0.238,0.851-0.349,1.611-0.349
					c0.414,0,0.732,0.022,0.933,0.044V527.442z M188.54,524.124c-0.117-0.017-0.29-0.021-0.504-0.021
					c-0.622,0-1.196,0.183-1.196,0.726c0,0.509,0.546,0.72,1.203,0.72h0.497V524.124z M188.54,525.913h-0.546
					c-0.636,0-1.009,0.267-1.009,0.626c0,0.438,0.414,0.609,1.022,0.609c0.276,0,0.436-0.017,0.532-0.033V525.913z"/>
				<path fill="none" stroke="#0000FF" stroke-width="0.01" d="M185.393,527.492h-0.602v-3.329h-1.99v-0.404h2.592V527.492z"/>
				<path fill="none" stroke="#0000FF" stroke-width="0.01" d="M181.525,527.492v-3.733h0.602v3.733H181.525z"/>
				<path fill="none" stroke="#0000FF" stroke-width="0.01" d="M177.218,523.88c0.222-0.089,0.664-0.183,1.23-0.183
					c1.313,0,2.302,0.67,2.302,1.894c0,1.169-0.988,1.961-2.433,1.961c-0.581,0-0.947-0.1-1.106-0.166l0.146-0.394
					c0.228,0.089,0.553,0.155,0.939,0.155c1.093,0,1.818-0.56,1.818-1.54c0-0.913-0.656-1.501-1.79-1.501
					c-0.366,0-0.74,0.062-0.981,0.155L177.218,523.88z"/>
			</g>
			<g enable-background="new    ">
				<path fill="none" stroke="#0000FF" stroke-width="0.01" d="M191.013,517.24c0.222-0.089,0.664-0.183,1.23-0.183
					c1.313,0,2.302,0.67,2.302,1.894c0,1.169-0.988,1.961-2.433,1.961c-0.581,0-0.947-0.1-1.106-0.166l0.146-0.394
					c0.228,0.089,0.553,0.155,0.939,0.155c1.093,0,1.818-0.56,1.818-1.54c0-0.913-0.656-1.501-1.79-1.501
					c-0.366,0-0.74,0.062-0.981,0.155L191.013,517.24z"/>
				<path fill="none" stroke="#0000FF" stroke-width="0.01" d="M189.476,518.292l0.483-1.174h0.622l-1.583,3.733h-0.726l-1.59-3.733
					h0.643l0.498,1.174H189.476z M187.947,518.668l0.456,1.074c0.104,0.244,0.173,0.466,0.242,0.682h0.014
					c0.069-0.222,0.146-0.448,0.235-0.676l0.456-1.08H187.947z"/>
				<path fill="none" stroke="#0000FF" stroke-width="0.01" d="M185.995,520.851h-0.602v-3.329h-1.99v-0.404h2.592V520.851z"/>
				<path fill="none" stroke="#0000FF" stroke-width="0.01" d="M182.729,520.851h-0.602v-3.329h-1.99v-0.404h2.592V520.851z"/>
			</g>
		</g>
	</g>
	<path fill="none" stroke="#FF0000" stroke-width="0.01" d="M267.739,17.328v234.748h234.748V17.328H267.739z M276.86,26.451h27.17
		v6.12h-21.05V54.62h-6.12V26.451z M282.981,134.45v-21.966h12.002v21.966H282.981z M294.983,157.422v21.966h-12.002v-21.966
		H294.983z M282.981,89.51V67.545h12.002V89.51H282.981z M317.453,236.834H304.03v6.118h-27.169v-27.168h6.12v-13.423h12.002v22.469
		h22.471L317.453,236.834L317.453,236.834z M339.923,44.572h-21.966V32.57h21.966V44.572z M362.392,236.834h-21.965V224.83h21.965
		V236.834z M384.862,44.572h-21.967V32.57h21.967V44.572z M407.33,236.834h-21.966V224.83h21.966V236.834z M429.801,44.572h-21.967
		V32.57h21.967V44.572z M452.27,236.834h-21.965V224.83h21.965V236.834z M493.364,242.954h-27.17v-6.118h21.05v-22.05h6.12V242.954z
		 M487.244,134.954v21.966h-12.002v-21.966H487.244z M475.242,111.98V90.014h12.002v21.966H475.242z M487.244,179.892v21.966
		h-12.002v-21.966H487.244z M493.364,54.618h-6.12v12.424h-12.002V44.571h-22.47V32.569h13.422v-6.12h27.17V54.618z"/>
	<g>
		<path fill="none" stroke="#FF0000" stroke-width="1.000000e-04" d="M400.569,552.939l55.679,8.433v56.312l81.816,71.593v-32.092
			h-10.12v-21.966h10.12v-22.975h-10.12V590.28h10.12v-22.974h-10.12V545.34h10.12v-22.974h-10.12v-22.47l0.113-0.097l-22.215-3.365
			l1.381-10.026l-22.714-3.439l-1.381,10.025l-21.718-3.289l1.381-10.025l-22.714-3.44l-1.382,10.026l-21.718-3.289l1.38-10.025
			l-22.715-3.439l-1.381,10.025l-21.717-3.289l1.381-10.025l-22.714-3.44l-8.883-1.346l-0.081-0.127l-2.98,10.197l-6.303,21.566
			l8.754,2.56l-6.161,21.083l-8.754-2.559l-6.444,22.052l8.755,2.559l-6.161,21.084l-8.754-2.559l-6.444,22.051l8.754,2.558
			l-6.161,21.084l-8.754-2.558l-6.443,22.051l8.754,2.559l-6.303,21.566l0.136-0.062l20.363,9.495l-3.854,8.268l20.82,9.709
			l3.854-8.266l19.908,9.283l-3.854,8.266l20.821,9.709l3.854-8.266l19.906,9.283l-3.854,8.266l20.82,9.709l3.854-8.266
			l19.907,9.283l-3.854,8.266l29.992,13.986L435.811,630.79l-51.036-23.8L400.569,552.939z"/>
		<line fill="none" stroke="#0000FF" stroke-width="1.000000e-04" x1="400.569" y1="552.939" x2="342.329" y2="461.436"/>
		<line fill="none" stroke="#0000FF" stroke-width="1.000000e-04" x1="456.247" y1="561.372" x2="527.944" y2="499.899"/>
		<line fill="none" stroke="#0000FF" stroke-width="1.000000e-04" x1="384.773" y1="606.991" x2="297.737" y2="646.542"/>
	</g>
	<polygon id="side_6_" fill="none" stroke="#FF0000" stroke-width="1.000000e-04" points="122.179,543.218 128.299,543.218 
		138.073,543.218 138.073,549.338 146.839,549.338 146.839,543.218 156.613,543.218 156.613,549.338 165.379,549.338 
		165.379,543.218 175.153,543.218 175.153,549.338 183.919,549.338 183.919,543.218 193.692,543.218 193.692,549.338 
		202.963,549.338 202.963,560.356 209.083,560.356 209.083,571.878 202.963,571.878 202.963,582.392 209.083,582.392 
		209.083,593.41 209.083,600.034 202.963,600.034 193.188,600.034 193.188,593.915 184.423,593.915 184.423,600.034 
		174.648,600.034 174.648,593.915 165.883,593.915 165.883,600.034 156.109,600.034 156.109,593.915 147.343,593.915 
		147.343,600.034 137.57,600.034 137.57,593.915 128.299,593.915 128.299,582.896 122.179,582.896 122.179,571.374 128.299,571.374 
		128.299,560.86 122.179,560.86 122.179,549.842 	"/>
	<polygon id="side_1_" fill="none" stroke="#FF0000" stroke-width="1.000000e-04" points="210.739,543.218 216.858,543.218 
		226.633,543.218 226.633,549.338 235.398,549.338 235.398,543.218 245.173,543.218 245.173,549.338 253.938,549.338 
		253.938,543.218 263.713,543.218 263.713,549.338 272.479,549.338 272.479,543.218 282.253,543.218 282.253,549.338 
		291.522,549.338 291.522,560.356 297.643,560.356 297.643,571.878 291.522,571.878 291.522,582.392 297.643,582.392 
		297.643,593.41 297.643,600.034 291.522,600.034 281.749,600.034 281.749,593.915 272.982,593.915 272.982,600.034 
		263.208,600.034 263.208,593.915 254.442,593.915 254.442,600.034 244.669,600.034 244.669,593.915 235.903,593.915 
		235.903,600.034 226.129,600.034 226.129,593.915 216.858,593.915 216.858,582.896 210.739,582.896 210.739,571.374 
		216.858,571.374 216.858,560.86 210.739,560.86 210.739,549.842 	"/>
	<polygon id="side_2_" fill="none" stroke="#FF0000" stroke-width="1.000000e-04" points="60.764,558.794 66.883,558.794 
		78.405,558.794 78.405,564.915 88.918,564.915 88.918,558.794 100.441,558.794 100.441,564.915 111.459,564.915 111.459,575.933 
		117.578,575.933 117.578,587.456 111.459,587.456 111.459,597.968 117.578,597.968 117.578,608.986 117.578,615.61 111.459,615.61 
		99.937,615.61 99.937,609.49 89.423,609.49 89.423,615.61 77.901,615.61 77.901,609.49 66.883,609.49 66.883,598.472 
		60.764,598.472 60.764,586.951 66.883,586.951 66.883,576.437 60.764,576.437 60.764,565.419 	"/>
	<polygon id="side_4_" fill="none" stroke="#FF0000" stroke-width="1.000000e-04" points="198.152,608.764 204.272,608.764 
		204.272,620.286 198.152,620.286 198.152,630.799 204.272,630.799 204.272,642.321 198.152,642.321 198.152,659.459 
		188.379,659.459 188.379,653.338 179.612,653.338 179.612,659.459 169.838,659.459 169.838,653.338 161.072,653.338 
		161.072,659.459 151.299,659.459 151.299,653.338 142.532,653.338 142.532,659.459 132.759,659.459 132.759,653.338 
		117.369,653.338 117.369,641.817 123.488,641.817 123.488,631.303 117.369,631.303 117.369,619.782 123.488,619.782 
		123.488,602.643 133.263,602.643 133.263,608.764 142.029,608.764 142.029,602.643 151.803,602.643 151.803,608.764 
		160.569,608.764 160.569,602.643 170.343,602.643 170.343,608.764 179.108,608.764 179.108,602.643 188.883,602.643 
		188.883,608.764 	"/>
	<polygon id="side_5_" fill="none" stroke="#FF0000" stroke-width="1.000000e-04" points="287.503,611.773 293.623,611.773 
		293.623,623.294 287.503,623.294 287.503,633.808 293.623,633.808 293.623,645.331 287.503,645.331 287.503,662.469 
		277.729,662.469 277.729,656.35 268.963,656.35 268.963,662.469 259.188,662.469 259.188,656.35 250.423,656.35 250.423,662.469 
		240.648,662.469 240.648,656.35 231.883,656.35 231.883,662.469 222.108,662.469 222.108,656.35 206.719,656.35 206.719,644.827 
		212.839,644.827 212.839,634.313 206.719,634.313 206.719,622.79 212.839,622.79 212.839,605.654 222.612,605.654 222.612,611.773 
		231.379,611.773 231.379,605.654 241.152,605.654 241.152,611.773 249.919,611.773 249.919,605.654 259.692,605.654 
		259.692,611.773 268.459,611.773 268.459,605.654 278.232,605.654 278.232,611.773 	"/>
	<g>
		<polygon id="side_30_" fill="none" stroke="#FF0000" stroke-width="1.000000e-04" points="273.458,260.412 279.578,260.412 
			302.552,260.412 302.688,266.532 324.652,266.532 324.517,260.412 347.49,260.412 347.626,266.532 369.592,266.532 
			369.456,260.412 392.429,260.412 392.564,266.532 414.53,266.532 414.395,260.412 437.368,260.412 437.504,266.532 
			459.973,266.532 459.973,289.001 466.093,288.876 466.093,311.849 459.973,311.974 459.973,333.94 466.093,333.815 
			466.093,356.79 459.973,356.915 459.973,378.878 466.093,378.753 466.093,401.727 459.973,401.852 459.973,423.817 
			466.093,423.692 466.093,446.161 466.093,452.786 459.973,452.911 437,452.911 437,446.79 415.034,446.79 415.034,452.911 
			392.061,452.911 392.061,446.79 370.096,446.79 370.096,452.911 347.122,452.911 347.122,446.79 325.155,446.79 325.155,452.911 
			302.184,452.911 302.184,446.79 279.714,446.79 279.714,424.321 273.594,424.321 273.594,401.348 279.714,401.348 
			279.714,379.382 273.594,379.382 273.594,356.41 279.714,356.41 279.714,334.444 273.594,334.444 273.594,311.47 279.714,311.47 
			279.714,289.505 273.594,289.505 273.594,267.036 		"/>
		<path fill="none" stroke="#FF0000" stroke-width="1.000000e-04" d="M359.009,328.253h-17.642v17.643h6.119v-11.521h11.521
			L359.009,328.253L359.009,328.253z M381.045,328.253h-11.521v6.12h11.521V328.253z M341.368,367.931h6.119V356.41h-6.119V367.931z
			 M392.062,345.392v11.521h6.12v-11.521H392.062z M358.506,385.069h11.521v-6.12h-11.521V385.069z M392.062,378.949h-11.521v6.12
			h17.643v-17.642h-6.12L392.062,378.949L392.062,378.949z"/>
	</g>
</g>
</svg>
